<svg xmlns="http://www.w3.org/2000/svg" viewBox="0 0 31 31"><path d="M1 1h7v7h-7zM9 1h3v2h-1v-1h-2zM13 1h1v1h-1zM16 1h2v1h1v-1h1v2h-1v1h1v2h-2v-2h-2v1h1v2h-1v-1h-3v-3h1v2h1v-2h-1v-1h2v1h1v-1h-1zM21 1h1v3h-2v-1h1zM23 1h7v7h-7zM2 2v5h5v-5zM24 2v5h5v-5zM3 3h3v3h-3zM9 3h1v1h-1zM25 3h3v3h-3zM10 4h2v2h-1v1h-1v1h-1v-2h1zM12 6h1v1h-1zM21 6h1v2h-1zM11 7h1v1h1v2h-3v-1h1zM13 7h1v1h-1zM15 7h1v1h1v-1h1v2h-2v2h-2v-2h1zM19 7h1v1h1v1h1v2h1v-1h1v-1h1v2h-1v2h1v2h-1v2h1v2h-2v-3h-1v-1h1v-2h-1v1h-1v-1h-1v-1h-1v-1h1v-2h-1zM1 9h1v1h1v-1h1v1h2v1h-3v1h2v1h-1v3h-2v-1h-1v-1h2v-1h-2zM7 9h2v2h-1v-1h-1zM27 9h1v1h-1zM29 9h1v3h-1v-1h-1v-1h1zM6 11h2v1h-1v1h-1zM9 11h1v1h1v1h-1v1h-1v2h-3v-1h2v-1h-1v-1h1v-1h1zM13 11h1v1h1v2h-1v-1h-2v-1h1zM16 11h1v1h-1zM25 11h3v1h-1v1h-1v-1h-1zM11 13h1v1h2v1h2v1h1v-2h-1v-1h2v1h1v1h-1v2h-2v2h-3v-2h-1v-1h1v-1h-3v-1h1zM29 13h1v3h-1v-1h-1v-1h1zM20 14h1v2h-1zM25 15h1v1h-1zM1 16h1v1h-1zM10 16h1v1h1v2h-1v-1h-1zM14 16v1h1v-1zM19 16h1v1h-1zM2 17h2v1h1v1h1v3h-5v-1h2v-1h-2v-1h2v-1h-1zM7 17h1v1h-1zM20 17h2v2h-1v1h-1v-1h-1v-1h1zM29 17h1v3h-1v-1h-2v-1h2zM9 18h1v1h-1zM7 19h2v1h-2zM10 19h1v3h-1v2h-1v-3h1zM12 19h1v2h1v-1h1v2h-1v1h2v1h1v-2h-1v-1h2v2h1v1h-1v1h-2v2h1v1h-1v1h2v-1h1v2h-7v-1h3v-3h-1v2h-2v-2h-1v-1h4v-1h-2v-2h-1zM16 19h1v1h-1zM18 19h1v1h-1zM22 19h1v2h4v1h1v1h-2v2h1v1h2v1h1v1h-2v-1h-2v1h-1v-1h-1v-1h-1v2h2v2h-4v-1h-1v-3h-1v1h-1v-2h2v-1h1v-2h-1v-1h1v-1h1zM26 19h1v1h-1zM19 20h1v1h-1zM7 21h1v1h-1zM28 21h1v1h-1zM11 22h1v1h-1zM19 22h1v1h-1zM22 22v3h3v-3zM29 22h1v2h-1zM1 23h7v7h-7zM23 23h1v1h-1zM2 24v5h5v-5zM10 24h1v1h-1zM3 25h3v3h-3zM10 26h1v1h-1zM21 26v2h1v-2zM9 27h1v1h-1zM10 28h2v1h-1v1h-2v-1h1zM26 28h1v2h-1zM29 29h1v1h-1z"/></svg>