<svg xmlns="http://www.w3.org/2000/svg" viewBox="0 0 31 31"><path d="M1 1h7v7h-7zM10 1h3v2h-2v-1h-1zM16 1h5v1h-2v1h-1v-1h-2zM23 1h7v7h-7zM2 2v5h5v-5zM21 2h1v1h-1zM24 2v5h5v-5zM3 3h3v3h-3zM9 3h1v2h1v1h1v2h-1v-1h-1v1h1v1h-2zM13 3h1v2h-1v1h-1v-1h-1v-1h2zM15 3h1v1h-1zM17 3h1v1h1v1h-2zM25 3h3v3h-3zM14 5h3v1h1v2h-1v-1h-1v1h-1v-1h-1zM19 5h3v3h-1v-2h-1v2h-1zM13 7h1v1h1v1h-2v1h-1v-2h1zM16 8h1v2h1v1h-2v-1h-1v-1h1zM20 8h1v1h-1zM1 9h1v1h-1zM3 9h5v1h-2v1h-1v-1h-1v2h-1v1h-2v-2h1v-1h1zM18 9h1v1h-1zM23 9h5v1h-2v2h1v1h1v1h-2v-1h-1v-1h-1v-1h-1v1h-1v-1h-2v-1h3zM8 10h3v1h-2v1h-2v-1h1zM29 10h1v1h-1zM12 11h2v1h-1v1h-1v1h1v1h-1v1h2v-2h3v1h1v1h-1v2h1v1h-2v-1h-1v-1h1v-1h-1v1h-4v-5h1zM18 11h1v1h-1zM5 12h1v1h4v1h-3v1h2v1h-3v2h1v1h1v-1h-1v-1h2v4h-1v-1h-2v-1h-1v1h-1v2h-1v-3h-1v3h-1v-6h1v2h1v-1h1v-1h1v-1h-1v-2h1zM15 12h1v1h-1zM17 12h1v1h1v1h-2zM20 12h2v1h-1v2h-1v1h-1v-2h1zM23 12h1v1h-1zM28 12h1v1h-1zM1 14h2v1h-2zM22 14h4v1h2v1h-2v1h-1v-1h-1v-1h-1v1h1v1h-2v-1h-1v-1h1zM29 14h1v1h-1zM9 16h1v1h-1zM28 16h1v1h-1zM10 17h1v1h-1zM18 17h1v1h-1zM26 17h2v3h-1v-2h-1zM12 18h1v2h1v1h-1v1h4v1h1v1h-1v2h1v1h-2v-1h-1v-1h1v-1h-1v1h-2v-1h-2v-2h-1v1h-1v-2h3zM20 18h6v1h-1v1h-3v1h3v-1h1v2h1v-1h1v-1h1v1h1v2h-2v1h-2v2h-1v1h1v-1h1v-1h1v2h1v2h-1v-1h-1v1h-4v-1h-1v1h-1v1h-2v-1h1v-1h1v-1h3v-1h-3v-1h-2v-1h1v-1h1v-4h-1zM29 18h1v1h-1zM10 19h1v1h-1zM18 19h2v2h-1v-1h-1zM15 20h1v1h-1zM17 20h1v1h1v1h-2zM5 21h1v1h-1zM7 21h1v1h-1zM19 22h1v1h-1zM22 22v3h3v-3zM1 23h7v7h-7zM23 23h1v1h-1zM2 24v5h5v-5zM9 24h2v1h1v1h-2v2h-1zM3 25h3v3h-3zM18 25h1v1h-1zM29 25h1v1h-1zM12 26h1v1h-1zM14 26h1v2h-2v-1h1zM20 26h1v1h-1zM11 27h1v1h-1zM18 27h2v1h-2zM10 28h1v1h-1zM15 28h1v2h-2v-1h1zM17 28h1v1h-1zM9 29h1v1h-1zM11 29h1v1h-1zM22 29h1v1h-1zM27 29h1v1h-1z"/></svg>