<svg xmlns="http://www.w3.org/2000/svg" viewBox="0 0 31 31"><path d="M1 1h7v7h-7zM11 1h2v1h-1v1h-1zM15 1h1v1h-1zM18 1h4v3h-1v-1h-2v-1h-1zM23 1h7v7h-7zM2 2v5h5v-5zM9 2h1v1h-1zM13 2h2v1h-2zM24 2v5h5v-5zM3 3h3v3h-3zM16 3h1v1h-1zM25 3h3v3h-3zM10 4h1v3h-1v-1h-1v-1h1zM14 4h1v2h-2v-1h1zM17 4h1v1h1v-1h2v2h1v2h-1v-1h-1v-1h-1v1h-1v1h-1v-1h-1v1h-1v-2h2zM12 6h1v1h-1zM9 7h1v1h-1zM11 7h1v2h-1zM13 7h1v1h-1zM19 7h1v1h-1zM16 8h1v1h-1zM18 8h1v2h-1v1h1v1h1v1h-1v1h-1v-1h-1v-1h-1v1h1v2h-2v-2h-1v-1h1v-1h1v-1h1v-1h1zM1 9h1v1h-1zM3 9h1v1h-1zM5 9h1v1h-1zM7 9h1v1h-1zM12 9h2v1h-1v3h-2v-3h1zM21 9h1v1h2v1h2v1h-1v1h-1v2h2v-2h1v5h1v1h-2v-3h-1v1h-1v2h-3v-2h1v-1h1v-1h-1v-1h-2v-1h1zM25 9h1v1h-1zM28 9h1v1h-1zM2 10h1v2h1v4h3v1h5v1h-2v2h-1v-1h-1v-1h-1v1h-1v1h-1v-2h-1v-1h-1v-1h-1v-1h1v-1h-1v1h-1v-4h1zM4 10h1v2h-1zM8 10h2v2h-1v1h1v1h-5v-1h1v-1h1v1h1v-1h-1v-1h1zM14 10h1v1h-1zM26 10h1v1h-1zM29 10h1v2h-1v1h1v3h-1v1h1v3h-1v1h-1v-2h1v-1h-1v-3h1v-1h-1v-2h-1v-1h2zM22 11v2h1v-2zM13 13h1v1h-1zM10 14h1v1h2v1h1v1h-2v-1h-3v-1h1zM7 15h1v1h-1zM14 15h1v1h-1zM16 16h1v1h-1zM18 16h3v1h-2v2h-1v1h4v1h2v-2h1v2h1v2h1v2h-1v2h1v1h-3v-1h1v-1h-4v-2h-1v-2h1v-1h-1v1h-1v-1h-2v-1h-1v1h1v2h-2v-2h-1v-1h1v-1h1v-1h1v-1h1zM2 17h1v1h1v2h-1v-1h-1zM13 18h2v1h-2zM1 19h1v1h-1zM7 19h1v1h-1zM11 19h2v4h-1v-1h-1v-1h1v-1h-1zM2 20h1v1h-1zM4 20h1v1h1v-1h1v1h1v1h-5v-1h1zM8 20h1v1h-1zM10 20h1v1h-1zM26 20h1v1h-1zM1 21h1v1h-1zM9 21h1v2h-1zM22 22v3h3v-3zM27 22h3v3h-1v-1h-1v-1h-1zM1 23h7v7h-7zM10 23h2v1h-2zM13 23h2v1h-2zM18 23h1v1h-1zM23 23h1v1h-1zM2 24v5h5v-5zM16 24h1v1h-1zM3 25h3v3h-3zM9 25h1v1h-1zM17 25h1v1h1v1h-1v1h1v-1h1v2h1v-1h1v2h-3v-1h-2v-1h-1v-2h1zM10 26h2v1h-2zM13 26h2v2h-2zM27 26h1v1h-1zM9 27h1v1h-1zM29 27h1v1h-1zM11 28h2v1h-2zM23 28h1v2h-1zM28 28h1v1h1v1h-2zM9 29h1v1h-1zM13 29h1v1h-1zM15 29h2v1h-2z"/></svg>