<svg width="462" height="487" viewBox="0 0 462 487" fill="none" xmlns="http://www.w3.org/2000/svg">
<path d="M300.937 371.944C300.937 372.65 300.565 373.304 299.958 373.664L163.488 454.58C162.155 455.371 160.468 454.41 160.468 452.86L160.468 87.1894C160.468 86.0848 161.364 85.1893 162.468 85.1893L298.937 85.1893C300.042 85.1893 300.937 86.0848 300.937 87.1893L300.937 371.944Z" fill="#C4C4C4"/>
<path d="M0 84.427C0 83.7208 0.372482 83.0669 0.979972 82.7067L137.449 1.79066C138.782 1.00017 140.469 1.96105 140.469 3.51098V369.182C140.469 370.286 139.574 371.182 138.469 371.182H2C0.895432 371.182 0 370.286 0 369.182V84.427Z" fill="#C4C4C4"/>
<path d="M320.938 199.427C320.938 198.721 321.31 198.067 321.917 197.707L458.387 116.791C459.72 116 461.407 116.961 461.407 118.511V484.182C461.407 485.286 460.511 486.182 459.407 486.182H322.938C321.833 486.182 320.938 485.286 320.938 484.182V199.427Z" fill="#C4C4C4"/>
</svg>
