<svg width="31" height="29" viewBox="0 0 31 29" fill="none" xmlns="http://www.w3.org/2000/svg">
<g clip-path="url(#clip0_1755_2561)">
<path d="M31 8.41602V26.521C31 27.506 29.2421 28.8418 28.283 28.9064C19.5413 29.0225 10.7568 29.045 2.01619 28.8945C0.946628 28.6841 0 27.474 0 26.4025V8.41602H31ZM6.16021 11.9855C5.8128 12.0489 5.57466 12.3144 5.52833 12.6587C5.45826 13.1755 5.45885 14.7394 5.5218 15.2627C5.55625 15.5502 5.75222 15.7949 6.02481 15.8868C6.34906 15.9952 8.22925 15.9899 8.6408 15.9431C8.9995 15.9028 9.28456 15.7511 9.41105 15.4079C9.55952 15.0049 9.55002 13.3183 9.50132 12.8323C9.45262 12.3464 9.20736 12.0263 8.70019 11.9724C8.19303 11.9185 6.61155 11.9043 6.16021 11.9866V11.9855ZM13.8217 11.986C13.5539 12.0311 13.2314 12.261 13.1875 12.5384C13.1103 13.0243 13.1221 14.8117 13.1827 15.322C13.2267 15.693 13.5788 15.9057 13.9262 15.9431C14.4863 16.0029 15.8011 16.0029 16.3617 15.9431C16.7709 15.8992 17.0559 15.6782 17.104 15.2615C17.1676 14.7074 17.1717 13.2027 17.1052 12.6528C17.0577 12.2581 16.7412 12.0157 16.3617 11.9724C15.8658 11.9161 14.295 11.9072 13.8223 11.9866L13.8217 11.986ZM21.542 11.986C21.2742 12.0311 20.9517 12.261 20.9078 12.5384C20.83 13.0255 20.843 14.81 20.903 15.322C20.9511 15.7285 21.333 15.9128 21.7036 15.9454C22.2962 15.9976 23.4929 16.0017 24.0808 15.9425C24.4348 15.9069 24.7186 15.7878 24.7976 15.4133C24.8891 14.98 24.8831 13.1281 24.8255 12.6528C24.7762 12.2438 24.4746 12.0145 24.082 11.9724C23.5701 11.9179 22.0272 11.9055 21.5426 11.9866L21.542 11.986ZM6.04025 20.696C5.77954 20.8062 5.56872 21.0285 5.52833 21.3112C5.45172 21.8493 5.46835 23.2947 5.52061 23.8565C5.55862 24.2595 5.78785 24.5464 6.20475 24.5961C6.72914 24.659 8.23697 24.659 8.76136 24.5961C9.20557 24.5428 9.45559 24.1511 9.50251 23.7356C9.5613 23.2135 9.55477 22.0128 9.50192 21.4842C9.45916 21.0599 9.27506 20.7369 8.82075 20.6824C7.9727 20.5804 6.91205 20.7505 6.04084 20.696H6.04025ZM13.7024 20.6972C13.4131 20.7559 13.2172 21.019 13.1827 21.3046C13.1168 21.8511 13.1168 23.4281 13.1827 23.9745C13.2148 24.2423 13.3894 24.4984 13.6572 24.5677C14.0029 24.6572 16.063 24.6471 16.4811 24.5967C16.7495 24.5647 17.0061 24.3905 17.0755 24.1232C17.167 23.7694 17.1521 21.7942 17.1034 21.3657C17.0702 21.0723 16.8386 20.7357 16.5357 20.6877C16.1473 20.6261 14.0676 20.6243 13.7024 20.6978V20.6972ZM24.6254 20.8815C24.5048 20.7553 24.313 20.6966 24.1438 20.6806C23.5481 20.6243 22.108 20.6124 21.5266 20.6824C21.2582 20.7144 21.0016 20.8886 20.9321 21.1559C20.8425 21.5026 20.8525 23.5543 20.903 23.9739C20.9476 24.349 21.2261 24.5641 21.5842 24.5979C22.1822 24.6536 23.6188 24.6667 24.2014 24.5961C24.4698 24.5641 24.7264 24.3899 24.7958 24.1226C24.8879 23.7688 24.8725 21.7936 24.8238 21.3651C24.8059 21.2069 24.7353 20.9959 24.6254 20.8815Z" fill="#F39D3E"/>
<path d="M30.9406 6.40046H0V2.57796C0 1.37847 1.22693 0 2.46456 0H5.31513L5.40421 0.0888952V2.99281C5.40421 3.02481 5.51943 3.32646 5.54912 3.38158C5.88941 4.02518 6.88176 4.02518 7.23808 3.39995C7.26124 3.35905 7.36458 3.0734 7.36458 3.05207V0.0888952L7.45366 0H22.7161L22.8052 0.0888952V3.05207C22.8052 3.0734 22.9079 3.35905 22.9317 3.39995C23.288 4.02577 24.2798 4.02577 24.6206 3.38158C24.6497 3.32646 24.7656 3.02481 24.7656 2.99281V0.0888952L24.8546 0H27.7052C28.9274 0 30.9418 1.31861 30.9418 2.63723V6.40046H30.9406Z" fill="#F39D3E"/>
</g>
<defs>
<clipPath id="clip0_1755_2561">
<rect width="31" height="29" fill="white"/>
</clipPath>
</defs>
</svg>
