<svg width="43" height="31" viewBox="0 0 43 31" fill="none" xmlns="http://www.w3.org/2000/svg">
<path d="M16.8704 30.0264C16.1226 29.2811 16.2385 28.2485 16.3545 27.2921C16.8795 22.9581 19.9126 19.1515 24.0628 17.777C26.7673 16.881 32.2374 16.8537 34.9559 17.6958C39.1682 19 42.3603 22.7304 42.9143 27.1265C43.1172 28.7388 43.1255 30.3046 41.1431 30.5514L18.2043 30.5555C17.7448 30.5158 17.2007 30.3551 16.8704 30.0264Z" fill="#F39D3E"/>
<path d="M10.9384 0.0210455C16.9368 -0.412855 21.0109 5.94743 18.2021 11.2594C15.6302 16.1234 8.65961 16.6492 5.37224 12.2448C1.74205 7.38079 4.92592 0.455774 10.9384 0.0210455Z" fill="#F39D3E"/>
<path d="M28.1596 0.0211645C34.3386 -0.383754 38.4068 6.41954 35.1161 11.6976C32.1061 16.5259 24.8731 16.4125 22.0345 11.4789C19.2117 6.57355 22.5214 0.390477 28.1596 0.0211645Z" fill="#F39D3E"/>
<path d="M1.72127 30.5516C0.000575687 30.3371 -0.0565601 28.6404 0.0204489 27.2766C0.352499 21.3701 5.04508 17.311 10.8257 17.1321C12.5522 17.0791 14.2886 17.253 15.9224 17.7987C16.0226 17.9097 15.3237 18.5017 15.2177 18.6251C13.3861 20.7491 12.0198 23.5843 11.6289 26.3806C11.4327 27.7817 11.3739 29.1853 11.783 30.5507H1.72127V30.5516Z" fill="#F39D3E"/>
</svg>
