<?xml version="1.0" encoding="UTF-8"?>
<svg id="Layer_2" data-name="Layer 2" xmlns="http://www.w3.org/2000/svg" xmlns:xlink="http://www.w3.org/1999/xlink" viewBox="0 0 1080 1080">
  <defs>
    <style>
      .cls-1 {
        fill: none;
      }

      .cls-2 {
        fill: #fbb040;
      }

      .cls-3 {
        clip-path: url(#clippath);
      }
    </style>
    <clipPath id="clippath">
      <rect class="cls-1" x="0" width="1080" height="1080"/>
    </clipPath>
  </defs>
  <g id="Layer_1-2" data-name="Layer 1">
    <g class="cls-3">
      <g>
        <path class="cls-2" d="M29.67,762.72l1017.37-.47c11.92.92,23.74,10.18,26.73,21.65,2.82,10.84,2.61,48.6,1.33,60.6-3.04,28.44-44.7,35.03-68.18,42.11-303.97,91.68-628.13,91.81-932.23.45-14.2-4.27-41.69-11.51-53.62-17.98-7.38-4-14.19-12.87-15.58-21.18-1.96-11.64-1.83-45.48-.47-57.59,1.56-13.97,11.15-24.56,24.66-27.59Z"/>
        <path class="cls-2" d="M686.15,700.34V199.16c155.04,52.54,271.13,189.91,297.39,351.82,6.3,38.84,11.03,104.17,6.51,142.68-.33,2.82-.24,4.98-3,6.67h-300.9Z"/>
        <path class="cls-2" d="M393.96,199.16v501.17H93.06c-2.76-1.7-2.67-3.86-3-6.67-4.52-38.51.21-103.85,6.51-142.68,26.28-162.05,142.36-299.08,297.39-351.82Z"/>
        <path class="cls-2" d="M455.88,153.69c4.07-24.4,31.48-27.07,51.19-28.15,24.25-1.33,67.53-2.07,90.59,2.48,10.26,2.03,26.58,14.98,26.58,25.67v543.74l-2.9,2.9h-162.54l-2.9-2.9V153.69Z"/>
      </g>
    </g>
  </g>
</svg>