<svg width="63" height="63" viewBox="0 0 63 63" fill="none" xmlns="http://www.w3.org/2000/svg">
<g clip-path="url(#clip0_1755_2400)">
<g clip-path="url(#clip1_1755_2400)">
<path d="M61.996 24.548C59.6512 28.5916 55.6436 31.5485 50.9091 32.4823H31.4805V13.0537C32.4143 8.32148 35.3711 4.31155 39.4148 1.9668C50.45 4.8291 59.1337 13.5128 61.996 24.548Z" fill="#BE1E2D"/>
<path d="M0.75 40.6336C3.09475 36.5899 7.10243 33.6331 11.8369 32.6992H31.2655V52.1278C30.3317 56.8601 27.3749 60.87 23.3312 63.2147C12.296 60.3524 3.61231 51.6688 0.75 40.6336Z" fill="#BE1E2D"/>
<path d="M63.0013 32.4824C63.0013 49.8903 48.8922 63.9993 31.4844 63.9993V43.6616C31.4844 37.487 36.4889 32.4824 42.6636 32.4824H63.0013Z" fill="#BE1E2D"/>
<path d="M0 32.5169C0 15.109 14.109 1 31.5169 1V21.3377C31.5169 27.5123 26.5123 32.5169 20.3377 32.5169H0Z" fill="#BE1E2D"/>
</g>
</g>
<defs>
<clipPath id="clip0_1755_2400">
<rect width="63" height="63" fill="white"/>
</clipPath>
<clipPath id="clip1_1755_2400">
<rect width="63" height="63" fill="white" transform="translate(0 1)"/>
</clipPath>
</defs>
</svg>
