<svg width="67" height="67" viewBox="0 0 67 67" fill="none" xmlns="http://www.w3.org/2000/svg">
<g clip-path="url(#clip0_1755_2394)">
<path d="M58.7993 39.4526L53.6934 37.4015H67C67 33.0912 63.5037 29.5985 59.1934 29.5985H52.5803L65.8431 23.9343C64.5766 20.9708 61.6898 19.1934 58.6606 19.1934C57.6387 19.1934 56.5985 19.3942 55.5985 19.8212L50.5365 21.9818L59.9489 12.573C58.4234 11.0511 56.4234 10.2883 54.427 10.2883C52.4307 10.2883 50.4307 11.0511 48.9088 12.573L44.2336 17.2482L49.6058 3.86861C45.6058 2.26277 41.062 4.20438 39.4526 8.20438L37.4051 13.3102V0C33.0912 0 29.5985 3.49635 29.5985 7.80657V14.4197L23.938 1.16058C19.9708 2.85037 18.1314 7.43796 19.8212 11.4015L21.9818 16.4635L12.573 7.05474C9.52555 10.1022 9.52555 15.0438 12.573 18.0912L17.2482 22.7664L3.86861 17.3942C2.26277 21.3942 4.20438 25.9416 8.20438 27.5474L13.3102 29.5985H0C0 31.7518 0.875913 33.7044 2.28832 35.1168C3.70073 36.5292 5.64963 37.4015 7.80657 37.4015H14.4197L1.16058 43.0657C2.42336 46.0292 5.31022 47.8066 8.33942 47.8066C9.36131 47.8066 10.4015 47.6058 11.4015 47.1788L16.4635 45.0182L7.05474 54.427C10.1022 57.4781 15.0438 57.4781 18.0912 54.427L22.7664 49.7518L17.3942 63.1314C21.3942 64.7372 25.9416 62.7993 27.5474 58.7993L29.5985 53.6898V67C33.9088 67 37.4051 63.5037 37.4051 59.1934V52.5803L43.0657 65.8431C47.0292 64.1496 48.8723 59.562 47.1788 55.5985L45.0182 50.5365L54.427 59.9489C57.4781 56.8978 57.4781 51.9562 54.427 48.9088L49.7518 44.2336L63.1314 49.6058C64.7372 45.6058 62.7993 41.062 58.7993 39.4526ZM33.2226 44.1679C27.3321 44.1679 22.5584 39.3905 22.5584 33.5C22.5584 27.6095 27.3321 22.8358 33.2226 22.8358C39.1131 22.8358 43.8905 27.6095 43.8905 33.5C43.8905 39.3905 39.1131 44.1679 33.2226 44.1679Z" fill="#BE1E2D"/>
<rect x="19" y="19" width="29" height="28" fill="#BE1E2D"/>
</g>
<defs>
<clipPath id="clip0_1755_2394">
<rect width="67" height="67" fill="white"/>
</clipPath>
</defs>
</svg>
