<svg width="35" height="35" viewBox="0 0 35 35" fill="none" xmlns="http://www.w3.org/2000/svg">
<g clip-path="url(#clip0_736_396)">
<path d="M17.5038 0C7.83678 0 0 7.83678 0 17.5038C0 25.7123 5.65161 32.6004 13.2756 34.4922V22.8529H9.66628V17.5038H13.2756V15.1989C13.2756 9.24129 15.9718 6.47989 21.8209 6.47989C22.9299 6.47989 24.8434 6.69764 25.6262 6.91469V11.7632C25.2131 11.7198 24.4955 11.6981 23.6042 11.6981C20.7343 11.6981 19.6252 12.7854 19.6252 15.612V17.5038H25.3426L24.3603 22.8529H19.6252V34.8794C28.2924 33.8327 35.0082 26.4531 35.0082 17.5038C35.0075 7.83678 27.1707 0 17.5038 0Z" fill="#FAF5EE"/>
</g>
<defs>
<clipPath id="clip0_736_396">
<rect width="35.0075" height="35.0075" fill="white"/>
</clipPath>
</defs>
</svg>
