<svg width="28" height="28" viewBox="0 0 28 28" fill="none" xmlns="http://www.w3.org/2000/svg">
<path d="M23.2052 4.24598C20.7455 1.7863 17.3464 0.264648 13.5929 0.264648C9.83941 0.264648 6.44102 1.7863 3.98133 4.24598C1.52165 6.70634 0 10.1041 0 13.8582C0 17.6124 1.52165 21.0101 3.98133 23.4698C6.44102 25.9295 9.83941 27.4512 13.5929 27.4512C21.1006 27.4512 27.1865 21.3652 27.1865 13.8582C27.1865 10.1041 25.6649 6.70634 23.2052 4.24598ZM17.6208 12.8032L17.3943 14.6218C17.356 14.9256 17.0987 15.1541 16.7936 15.1541H13.8481V22.7576C13.5375 22.7856 13.2228 22.8 12.9046 22.8C12.193 22.8 11.4986 22.7288 10.8267 22.5934V15.1541H8.56134C8.35403 15.1541 8.18366 14.9837 8.18366 14.7751V12.5001C8.18366 12.2914 8.35403 12.1211 8.56134 12.1211H10.8267V8.70762C10.8267 6.6133 12.518 4.91581 14.6035 4.91581H17.2465C17.4545 4.91581 17.6242 5.08686 17.6242 5.29485V7.57049C17.6242 7.77848 17.4545 7.94953 17.2465 7.94953H15.3581C14.5248 7.94953 13.8481 8.62825 13.8481 9.46639V12.1211H17.02C17.384 12.1211 17.6652 12.4413 17.6208 12.8032Z" fill="white"/>
</svg>
