<?xml version="1.0" encoding="UTF-8"?>
<svg id="Layer_2" data-name="Layer 2" xmlns="http://www.w3.org/2000/svg" xmlns:xlink="http://www.w3.org/1999/xlink" viewBox="0 0 1080 1080">
  <defs>
    <style>
      .cls-1 {
        fill: none;
      }

      .cls-2 {
        fill: #fbb040;
      }

      .cls-3 {
        clip-path: url(#clippath);
      }
    </style>
    <clipPath id="clippath">
      <rect class="cls-1" width="1080" height="1080"/>
    </clipPath>
  </defs>
  <g id="Layer_1-2" data-name="Layer 1">
    <g class="cls-3">
      <path class="cls-2" d="M511.5,38.45c168.52-8.23,347.39,60.91,456.93,190.04,170.23,200.67,129.61,470.43-72.58,629.6-155.06,122.06-370.84,151.52-556.68,87.47-27.05,22.04-54.34,43.78-85.82,59.37-40.86,20.23-107.07,39.1-152.61,37.13-12.07-.52-22.33-5.37-28.42-16.13-15.24-26.93,12.13-43.83,25.99-63.82,23.48-33.88,36.75-78.95,34.38-120.36-2.28-39.74-13.61-39.93-34.72-67.81C-20.68,617.28-27.87,416.35,88.57,255.89,185.7,122.04,347.44,46.47,511.5,38.45ZM384.92,508.57c0-51.74-41.94-93.68-93.68-93.68s-93.68,41.94-93.68,93.68,41.94,93.68,93.68,93.68,93.68-41.94,93.68-93.68ZM635.71,508.65c0-51.75-41.95-93.7-93.7-93.7s-93.7,41.95-93.7,93.7,41.95,93.7,93.7,93.7,93.7-41.95,93.7-93.7ZM886.58,508.63c0-51.76-41.96-93.71-93.71-93.71s-93.71,41.96-93.71,93.71,41.96,93.71,93.71,93.71,93.71-41.96,93.71-93.71Z"/>
    </g>
  </g>
</svg>