<svg width="29" height="29" viewBox="0 0 29 29" fill="none" xmlns="http://www.w3.org/2000/svg">
<path d="M27.799 14.5018C30.0527 17.0582 29.0532 21.8922 25.4829 25.4865C21.8934 29.0568 17.0594 30.0563 14.4982 27.8027C11.9418 30.0563 7.10777 29.0568 3.51827 25.4865C-0.0568148 21.897 -1.05149 17.063 1.20215 14.5018C-1.05149 11.9454 -0.0520095 7.11138 3.51827 3.51708C7.10777 -0.053203 11.9418 -1.05269 14.4982 1.20096C17.0546 -1.05269 21.8886 -0.053203 25.4829 3.51708C29.0532 7.10657 30.0527 11.9406 27.799 14.5018Z" fill="#EE3724"/>
<path d="M21.8295 12.104L20.5801 12.3058L21.6565 11.5321C22.3965 10.7921 22.3965 9.58122 21.6565 8.84121L20.5993 7.78406C19.8593 7.04406 18.6484 7.04406 17.9084 7.78406L17.1684 8.81238L17.3798 7.50536C17.3798 6.45782 16.5245 5.60249 15.477 5.60249H13.9873C12.9398 5.60249 12.0845 6.45782 12.0845 7.50536L12.2863 8.75472L11.5126 7.67834C10.7726 6.93834 9.56173 6.93834 8.82172 7.67834L7.76938 8.73069C7.02938 9.47069 7.02938 10.6816 7.76938 11.4216L8.79289 12.1616L7.48587 11.9454C6.43834 11.9454 5.58301 12.8007 5.58301 13.8483V15.3427C5.58301 16.3902 6.43834 17.2455 7.48587 17.2455L8.73523 17.0437L7.65886 17.8174C6.91886 18.5574 6.91886 19.7683 7.65886 20.5083L8.7112 21.5654C9.45121 22.3054 10.6621 22.3054 11.4021 21.5654L12.1421 20.5371L11.9307 21.8441C11.9307 22.8917 12.786 23.747 13.8336 23.747H15.3232C16.3707 23.747 17.2261 22.8917 17.2261 21.8441L17.0242 20.5948L17.7979 21.6711C18.5379 22.4111 19.7488 22.4111 20.4888 21.6711L21.5411 20.6188C22.2811 19.8788 22.2811 18.6679 21.5411 17.9279L20.5176 17.1879L21.8246 17.4041C22.8722 17.4041 23.7275 16.5488 23.7275 15.5012V14.0116C23.7275 12.9641 22.8722 12.104 21.8246 12.104H21.8295ZM14.6601 17.8894C12.8004 17.8894 11.2964 16.3806 11.2964 14.521C11.2964 12.6614 12.8053 11.1525 14.6601 11.1525C16.5149 11.1525 18.0285 12.6614 18.0285 14.521C18.0285 16.3806 16.5197 17.8894 14.6601 17.8894Z" fill="#F78E1E"/>
<path d="M18.0223 14.5206C18.0223 16.38 16.5136 17.8886 14.6543 17.8886C12.7949 17.8886 11.291 16.38 11.291 14.5206C11.291 12.6612 12.7997 11.1526 14.6543 11.1526C16.5088 11.1526 18.0223 12.6612 18.0223 14.5206Z" fill="#08422A"/>
</svg>
