<?xml version="1.0" encoding="UTF-8"?>
<svg id="Layer_2" data-name="Layer 2" xmlns="http://www.w3.org/2000/svg" xmlns:xlink="http://www.w3.org/1999/xlink" viewBox="0 0 1080 1080">
  <defs>
    <style>
      .cls-1 {
        fill: none;
      }

      .cls-2 {
        fill: #fbb040;
      }

      .cls-3 {
        clip-path: url(#clippath);
      }
    </style>
    <clipPath id="clippath">
      <rect class="cls-1" width="1080" height="1080"/>
    </clipPath>
  </defs>
  <g id="Layer_1-2" data-name="Layer 1">
    <g class="cls-3">
      <path class="cls-2" d="M846.87,263.04c85.4-28.03,177.87,9.89,214.48,92.21,62.18,139.81-71.47,281.73-214.48,233.3v193.76c0,27.29-40.58,65.32-67.54,65.32h-189.33c41.27,132.62-73.82,258.8-210.36,222.54-95.84-25.46-148.36-128.81-117.37-222.54H72.94c-27.31,0-65.34-35.37-66.97-63.68l.47-275.18c4.39-11.4,12.76-22.59,25.37-25.55,31.35-7.35,38,13.88,60.65,26.02,54.85,29.43,124.25-1.44,138.15-61.96,19.33-84.2-69.4-143.92-141.72-101.87-22.81,13.26-35.22,39.07-66.52,19.13-10.91-6.95-15.93-16.73-17.05-29.45-7.33-83.19,5.65-177.05.11-261.37C9.84,38.35,36.56,9.24,72.86,6.09c84.11-7.29,178.49,5.7,263.7-.03,28.41,3.16,41.97,30.57,29.38,56.18-8.64,17.57-24.18,23.7-31.26,48.45-43.28,151.26,203.14,167.44,186.44,16.4-3.92-35.44-23.02-40.93-34.8-64.85-12.43-25.26.73-53.46,29.41-56.15,85.09-7.99,183.23,5.68,269.66.66,25.72,2.13,61.47,37.28,61.47,62.53v193.76Z"/>
    </g>
  </g>
</svg>