<svg width="30" height="30" viewBox="0 0 30 30" fill="none" xmlns="http://www.w3.org/2000/svg">
<g clip-path="url(#clip0_1755_2694)">
<path d="M14.849 0.00901974C15.1196 -0.0289632 15.322 0.0616532 15.5781 0.120255C20.071 1.15014 24.5531 2.63147 29.0433 3.71344C30.5155 4.37326 30.2179 6.82587 28.5313 6.94362H1.51849C-0.170218 6.88881 -0.537187 4.47256 0.878188 3.74708L14.849 0.00901974Z" fill="#F39D3E"/>
<path d="M1.32016 26.3812L28.6334 26.373C29.2997 26.4501 29.8929 27.022 29.9654 27.6965C30.0065 28.0758 30.0185 29.2337 29.9622 29.5929C29.934 29.7714 29.7965 29.906 29.6434 29.9787L0.442795 29.9999C0.248485 29.9689 0.0671654 29.7866 0.0368553 29.5929C-0.0183525 29.2424 -0.00860996 27.958 0.0465978 27.6015C0.139693 27.0014 0.722622 26.4577 1.31962 26.3817L1.32016 26.3812Z" fill="#F39D3E"/>
<path d="M2.67545 23.6156L27.1801 23.5977C27.5124 23.6438 27.8177 23.6693 28.0981 23.8711C28.5203 24.175 28.9879 25.0627 28.3449 25.366L1.79212 25.3915C0.691757 25.0242 1.84138 23.5163 2.67545 23.6156Z" fill="#F39D3E"/>
<path d="M10.193 10.5888L13.047 10.5801C13.6294 10.6723 13.4367 11.6317 13.4567 12.0685C13.5942 15.1228 13.7192 18.1788 13.7788 21.2413C13.7874 21.6977 14.057 22.3982 13.4719 22.6114C12.3509 22.536 11.0038 22.7514 9.90989 22.6239C9.7237 22.6022 9.56025 22.5073 9.51695 22.3125C9.43955 21.9652 9.49584 21.0493 9.50341 20.6396C9.53427 18.9103 9.66254 17.1641 9.72424 15.4348C9.77296 14.0794 9.69935 12.5286 9.83087 11.2008C9.85415 10.9659 9.92613 10.6479 10.1935 10.5877L10.193 10.5888Z" fill="#F39D3E"/>
<path d="M16.9031 10.5882L19.7571 10.5801C20.0857 10.6316 20.1441 10.9718 20.1679 11.2535C20.2821 12.5915 20.2237 14.0788 20.2719 15.4359C20.3292 17.0459 20.3936 18.6498 20.4342 20.2652C20.4505 20.9006 20.5858 21.6315 20.4873 22.2674C20.4581 22.4552 20.3493 22.5566 20.1696 22.6C19.0589 22.5469 17.7025 22.752 16.6195 22.625C16.3976 22.599 16.2455 22.4687 16.1719 22.2598L16.5394 11.0934C16.5535 10.8584 16.672 10.6615 16.9026 10.5893L16.9031 10.5882Z" fill="#F39D3E"/>
<path d="M2.81211 22.4959C2.74012 22.4237 2.69466 22.3211 2.68221 22.2186C2.61347 21.6532 2.72605 21.0422 2.74066 20.4822C2.7975 18.3612 2.88193 16.2493 2.95717 14.1337C2.99018 13.2101 2.92956 12.1607 3.00696 11.2535C3.03078 10.9718 3.08923 10.6316 3.41777 10.5801L6.2718 10.5882C6.51536 10.668 6.60737 10.8487 6.63498 11.0923C6.72104 11.853 6.65717 12.7614 6.68694 13.5362C6.7849 16.0849 6.89802 18.6308 6.96027 21.1844C6.97163 21.6396 7.25254 22.542 6.55487 22.6239C5.48536 22.7493 4.1831 22.5263 3.08761 22.625C2.98856 22.6169 2.87977 22.5637 2.81103 22.4948L2.81211 22.4959Z" fill="#F39D3E"/>
<path d="M27.187 22.4948C27.1183 22.5637 27.01 22.6169 26.9105 22.625C25.815 22.5257 24.5127 22.7493 23.4432 22.6239C22.7455 22.542 23.027 21.6396 23.0378 21.1844C23.1 18.6308 23.2132 16.0849 23.3111 13.5362C23.3409 12.7614 23.277 11.853 23.3631 11.0923C23.3907 10.8487 23.4827 10.668 23.7263 10.5882L26.5803 10.5801C26.9088 10.6316 26.9673 10.9718 26.9911 11.2535C27.114 12.6898 27.0436 14.3024 27.095 15.7615C27.1502 17.3345 27.2152 18.9032 27.2574 20.4822C27.2726 21.0422 27.3851 21.6526 27.3159 22.2186C27.3034 22.3211 27.2579 22.4237 27.186 22.4959L27.187 22.4948Z" fill="#F39D3E"/>
<path d="M2.18667 7.93229L27.6672 7.91602C28.9787 8.02779 28.0174 9.52432 27.1785 9.54603L2.87352 9.5482C2.10007 9.61602 1.04355 8.11136 2.18667 7.93229Z" fill="#F39D3E"/>
</g>
<defs>
<clipPath id="clip0_1755_2694">
<rect width="30" height="30" fill="white"/>
</clipPath>
</defs>
</svg>
