<svg width="31" height="29" viewBox="0 0 31 29" fill="none" xmlns="http://www.w3.org/2000/svg">
<path d="M15.0884 0.00446499C28.5235 -0.308765 35.3048 15.934 25.3467 24.9068C19.3805 30.2826 12.0484 28.4157 4.64621 28.6396C2.58007 27.5958 4.39441 26.3429 4.7129 25.306C5.11417 23.9954 3.60337 22.816 2.948 21.7168C-2.66403 12.3052 4.00004 0.263417 15.0884 0.00446499ZM14.9654 5.31128C14.4653 5.41418 13.8697 5.9547 13.6696 6.41154C12.8464 8.29997 14.9355 10.0222 16.6015 8.95583C18.5055 7.7357 17.3443 4.82278 14.9654 5.31241V5.31128ZM16.8361 19.6475C16.6751 17.4899 17.0522 15.035 16.843 12.9125C16.7935 12.4138 16.5003 11.7625 15.9508 11.6415C15.5874 11.5612 13.7202 11.5657 13.3822 11.6675C11.9266 12.1085 12.5842 14.5125 14.1928 14.2185C14.348 16.3456 13.9892 18.7428 14.1893 20.8371C14.3399 22.4179 15.9243 22.41 17.2304 22.2359C19.1126 21.986 18.7309 19.3433 16.8372 19.6452L16.8361 19.6475Z" fill="#F39D3E"/>
</svg>
