<svg width="28" height="28" viewBox="0 0 28 28" fill="none" xmlns="http://www.w3.org/2000/svg">
<path d="M13.6004 11.3992C12.2457 11.3992 11.1414 12.5029 11.1414 13.8576C11.1414 15.2123 12.2457 16.3166 13.6004 16.3166C14.9551 16.3166 16.0594 15.213 16.0594 13.8576C16.0594 12.5022 14.9551 11.3992 13.6004 11.3992ZM13.6004 11.3992C12.2457 11.3992 11.1414 12.5029 11.1414 13.8576C11.1414 15.2123 12.2457 16.3166 13.6004 16.3166C14.9551 16.3166 16.0594 15.213 16.0594 13.8576C16.0594 12.5022 14.9551 11.3992 13.6004 11.3992ZM17.0358 7.95706H10.1514C8.79396 7.95706 7.69241 9.05861 7.69241 10.4161V17.2997C7.69241 18.6572 8.79396 19.7587 10.1514 19.7587H17.0358C18.3925 19.7587 19.4941 18.6572 19.4941 17.2997V10.4161C19.4941 9.05861 18.3925 7.95706 17.0358 7.95706ZM13.6004 17.5461C11.5643 17.5461 9.91262 15.8937 9.91262 13.8576C9.91262 11.8214 11.5643 10.1697 13.6004 10.1697C15.6366 10.1697 17.2882 11.8221 17.2882 13.8576C17.2882 15.893 15.6359 17.5461 13.6004 17.5461ZM17.5346 10.6617C17.1275 10.6617 16.797 10.3305 16.797 9.92412C16.797 9.51771 17.1275 9.18656 17.5346 9.18656C17.9417 9.18656 18.2721 9.51703 18.2721 9.92412C18.2721 10.3312 17.941 10.6617 17.5346 10.6617ZM13.6004 11.3992C12.2457 11.3992 11.1414 12.5029 11.1414 13.8576C11.1414 15.2123 12.2457 16.3166 13.6004 16.3166C14.9551 16.3166 16.0594 15.213 16.0594 13.8576C16.0594 12.5022 14.9551 11.3992 13.6004 11.3992ZM17.0358 7.95706H10.1514C8.79396 7.95706 7.69241 9.05861 7.69241 10.4161V17.2997C7.69241 18.6572 8.79396 19.7587 10.1514 19.7587H17.0358C18.3925 19.7587 19.4941 18.6572 19.4941 17.2997V10.4161C19.4941 9.05861 18.3925 7.95706 17.0358 7.95706ZM13.6004 17.5461C11.5643 17.5461 9.91262 15.8937 9.91262 13.8576C9.91262 11.8214 11.5643 10.1697 13.6004 10.1697C15.6366 10.1697 17.2882 11.8221 17.2882 13.8576C17.2882 15.893 15.6359 17.5461 13.6004 17.5461ZM17.5346 10.6617C17.1275 10.6617 16.797 10.3305 16.797 9.92412C16.797 9.51771 17.1275 9.18656 17.5346 9.18656C17.9417 9.18656 18.2721 9.51703 18.2721 9.92412C18.2721 10.3312 17.941 10.6617 17.5346 10.6617ZM13.6004 11.3992C12.2457 11.3992 11.1414 12.5029 11.1414 13.8576C11.1414 15.2123 12.2457 16.3166 13.6004 16.3166C14.9551 16.3166 16.0594 15.213 16.0594 13.8576C16.0594 12.5022 14.9551 11.3992 13.6004 11.3992ZM23.2052 4.24598C20.7455 1.7863 17.3471 0.264648 13.5936 0.264648C9.84009 0.264648 6.4417 1.7863 3.98133 4.24598C1.52165 6.70634 0 10.1041 0 13.8582C0 17.6124 1.52165 21.0101 3.98133 23.4698C6.4417 25.9295 9.83941 27.4512 13.5936 27.4512C21.1006 27.4512 27.1865 21.3652 27.1865 13.8582C27.1865 10.1041 25.6649 6.70634 23.2052 4.24598ZM20.7236 17.5461C20.7236 19.4467 19.1821 20.9882 17.2814 20.9882H9.9051C8.00509 20.9882 6.46291 19.4467 6.46291 17.5461V10.1697C6.46291 8.26905 8.00509 6.72756 9.9051 6.72756H17.2814C19.1821 6.72756 20.7236 8.26905 20.7236 10.1697V17.5461ZM17.0358 7.95706H10.1514C8.79396 7.95706 7.69241 9.05861 7.69241 10.4161V17.2997C7.69241 18.6572 8.79396 19.7587 10.1514 19.7587H17.0358C18.3925 19.7587 19.4941 18.6572 19.4941 17.2997V10.4161C19.4941 9.05861 18.3925 7.95706 17.0358 7.95706ZM13.6004 17.5461C11.5643 17.5461 9.91262 15.8937 9.91262 13.8576C9.91262 11.8214 11.5643 10.1697 13.6004 10.1697C15.6366 10.1697 17.2882 11.8221 17.2882 13.8576C17.2882 15.893 15.6359 17.5461 13.6004 17.5461ZM17.5346 10.6617C17.1275 10.6617 16.797 10.3305 16.797 9.92412C16.797 9.51771 17.1275 9.18656 17.5346 9.18656C17.9417 9.18656 18.2721 9.51703 18.2721 9.92412C18.2721 10.3312 17.941 10.6617 17.5346 10.6617ZM13.6004 11.3992C12.2457 11.3992 11.1414 12.5029 11.1414 13.8576C11.1414 15.2123 12.2457 16.3166 13.6004 16.3166C14.9551 16.3166 16.0594 15.213 16.0594 13.8576C16.0594 12.5022 14.9551 11.3992 13.6004 11.3992ZM13.6004 11.3992C12.2457 11.3992 11.1414 12.5029 11.1414 13.8576C11.1414 15.2123 12.2457 16.3166 13.6004 16.3166C14.9551 16.3166 16.0594 15.213 16.0594 13.8576C16.0594 12.5022 14.9551 11.3992 13.6004 11.3992ZM13.6004 11.3992C12.2457 11.3992 11.1414 12.5029 11.1414 13.8576C11.1414 15.2123 12.2457 16.3166 13.6004 16.3166C14.9551 16.3166 16.0594 15.213 16.0594 13.8576C16.0594 12.5022 14.9551 11.3992 13.6004 11.3992ZM17.0358 7.95706H10.1514C8.79396 7.95706 7.69241 9.05861 7.69241 10.4161V17.2997C7.69241 18.6572 8.79396 19.7587 10.1514 19.7587H17.0358C18.3925 19.7587 19.4941 18.6572 19.4941 17.2997V10.4161C19.4941 9.05861 18.3925 7.95706 17.0358 7.95706ZM13.6004 17.5461C11.5643 17.5461 9.91262 15.8937 9.91262 13.8576C9.91262 11.8214 11.5643 10.1697 13.6004 10.1697C15.6366 10.1697 17.2882 11.8221 17.2882 13.8576C17.2882 15.893 15.6359 17.5461 13.6004 17.5461ZM17.5346 10.6617C17.1275 10.6617 16.797 10.3305 16.797 9.92412C16.797 9.51771 17.1275 9.18656 17.5346 9.18656C17.9417 9.18656 18.2721 9.51703 18.2721 9.92412C18.2721 10.3312 17.941 10.6617 17.5346 10.6617ZM13.6004 11.3992C12.2457 11.3992 11.1414 12.5029 11.1414 13.8576C11.1414 15.2123 12.2457 16.3166 13.6004 16.3166C14.9551 16.3166 16.0594 15.213 16.0594 13.8576C16.0594 12.5022 14.9551 11.3992 13.6004 11.3992ZM13.6004 11.3992C12.2457 11.3992 11.1414 12.5029 11.1414 13.8576C11.1414 15.2123 12.2457 16.3166 13.6004 16.3166C14.9551 16.3166 16.0594 15.213 16.0594 13.8576C16.0594 12.5022 14.9551 11.3992 13.6004 11.3992ZM13.6004 11.3992C12.2457 11.3992 11.1414 12.5029 11.1414 13.8576C11.1414 15.2123 12.2457 16.3166 13.6004 16.3166C14.9551 16.3166 16.0594 15.213 16.0594 13.8576C16.0594 12.5022 14.9551 11.3992 13.6004 11.3992ZM17.0358 7.95706H10.1514C8.79396 7.95706 7.69241 9.05861 7.69241 10.4161V17.2997C7.69241 18.6572 8.79396 19.7587 10.1514 19.7587H17.0358C18.3925 19.7587 19.4941 18.6572 19.4941 17.2997V10.4161C19.4941 9.05861 18.3925 7.95706 17.0358 7.95706ZM13.6004 17.5461C11.5643 17.5461 9.91262 15.8937 9.91262 13.8576C9.91262 11.8214 11.5643 10.1697 13.6004 10.1697C15.6366 10.1697 17.2882 11.8221 17.2882 13.8576C17.2882 15.893 15.6359 17.5461 13.6004 17.5461ZM17.5346 10.6617C17.1275 10.6617 16.797 10.3305 16.797 9.92412C16.797 9.51771 17.1275 9.18656 17.5346 9.18656C17.9417 9.18656 18.2721 9.51703 18.2721 9.92412C18.2721 10.3312 17.941 10.6617 17.5346 10.6617ZM13.6004 11.3992C12.2457 11.3992 11.1414 12.5029 11.1414 13.8576C11.1414 15.2123 12.2457 16.3166 13.6004 16.3166C14.9551 16.3166 16.0594 15.213 16.0594 13.8576C16.0594 12.5022 14.9551 11.3992 13.6004 11.3992Z" fill="white"/>
</svg>
