<svg width="35" height="35" viewBox="0 0 35 35" fill="none" xmlns="http://www.w3.org/2000/svg">
<path d="M17.5038 3.15204C22.1805 3.15204 22.7344 3.17256 24.5736 3.25461C26.283 3.32982 27.206 3.61699 27.8214 3.8563C28.6351 4.17082 29.2231 4.55371 29.8316 5.16224C30.447 5.77761 30.823 6.35879 31.1376 7.17244C31.3769 7.78781 31.664 8.71769 31.7392 10.4202C31.8213 12.2663 31.8418 12.8201 31.8418 17.4901C31.8418 22.1669 31.8213 22.7207 31.7392 24.56C31.664 26.2693 31.3769 27.1924 31.1376 27.8077C30.823 28.6214 30.4401 29.2094 29.8316 29.8179C29.2162 30.4333 28.6351 30.8094 27.8214 31.1239C27.206 31.3632 26.2762 31.6504 24.5736 31.7256C22.7275 31.8076 22.1737 31.8281 17.5038 31.8281C12.827 31.8281 12.2731 31.8076 10.4339 31.7256C8.72453 31.6504 7.80148 31.3632 7.18611 31.1239C6.37246 30.8094 5.78445 30.4265 5.17592 29.8179C4.56055 29.2026 4.18449 28.6214 3.86997 27.8077C3.63066 27.1924 3.34349 26.2625 3.26828 24.56C3.18623 22.7139 3.16572 22.16 3.16572 17.4901C3.16572 12.8133 3.18623 12.2595 3.26828 10.4202C3.34349 8.71086 3.63066 7.78781 3.86997 7.17244C4.18449 6.35879 4.56739 5.77077 5.17592 5.16224C5.79128 4.54688 6.37246 4.17082 7.18611 3.8563C7.80148 3.61699 8.73137 3.32982 10.4339 3.25461C12.2731 3.17256 12.827 3.15204 17.5038 3.15204ZM17.5038 0C12.7518 0 12.1569 0.0205122 10.2903 0.102561C8.43052 0.18461 7.15193 0.485456 6.04427 0.916212C4.88875 1.36748 3.911 1.96234 2.94008 2.94008C1.96234 3.911 1.36748 4.88875 0.916212 6.03743C0.485456 7.15193 0.18461 8.42368 0.102561 10.2835C0.0205122 12.1569 0 12.7518 0 17.5038C0 22.2558 0.0205122 22.8506 0.102561 24.7172C0.18461 26.577 0.485456 27.8556 0.916212 28.9633C1.36748 30.1188 1.96234 31.0965 2.94008 32.0674C3.911 33.0383 4.88875 33.64 6.03743 34.0845C7.15193 34.5152 8.42368 34.8161 10.2835 34.8981C12.1501 34.9802 12.7449 35.0007 17.4969 35.0007C22.2489 35.0007 22.8438 34.9802 24.7104 34.8981C26.5702 34.8161 27.8488 34.5152 28.9564 34.0845C30.1051 33.64 31.0828 33.0383 32.0538 32.0674C33.0247 31.0965 33.6264 30.1188 34.0708 28.9701C34.5016 27.8556 34.8024 26.5838 34.8844 24.7241C34.9665 22.8575 34.987 22.2626 34.987 17.5106C34.987 12.7586 34.9665 12.1637 34.8844 10.2971C34.8024 8.43736 34.5016 7.15876 34.0708 6.05111C33.64 4.88875 33.0452 3.911 32.0674 2.94008C31.0965 1.96917 30.1188 1.36748 28.9701 0.92305C27.8556 0.492293 26.5838 0.191447 24.7241 0.109399C22.8506 0.0205122 22.2558 0 17.5038 0Z" fill="#FAF5EE"/>
<path d="M17.5039 8.5127C12.5399 8.5127 8.5127 12.5399 8.5127 17.5039C8.5127 22.4678 12.5399 26.4951 17.5039 26.4951C22.4678 26.4951 26.4951 22.4678 26.4951 17.5039C26.4951 12.5399 22.4678 8.5127 17.5039 8.5127ZM17.5039 23.3362C14.2835 23.3362 11.6716 20.7243 11.6716 17.5039C11.6716 14.2835 14.2835 11.6716 17.5039 11.6716C20.7243 11.6716 23.3362 14.2835 23.3362 17.5039C23.3362 20.7243 20.7243 23.3362 17.5039 23.3362Z" fill="#FAF5EE"/>
<path d="M28.9491 8.15719C28.9491 9.31955 28.0056 10.2563 26.8501 10.2563C25.6877 10.2563 24.751 9.31271 24.751 8.15719C24.751 6.99483 25.6945 6.05811 26.8501 6.05811C28.0056 6.05811 28.9491 7.00167 28.9491 8.15719Z" fill="#FAF5EE"/>
</svg>
