<?xml version="1.0" encoding="UTF-8"?>
<svg id="Layer_2" data-name="Layer 2" xmlns="http://www.w3.org/2000/svg" xmlns:xlink="http://www.w3.org/1999/xlink" viewBox="0 0 1080 1080">
  <defs>
    <style>
      .cls-1 {
        fill: none;
      }

      .cls-2 {
        fill: #fbb040;
      }

      .cls-3 {
        clip-path: url(#clippath);
      }
    </style>
    <clipPath id="clippath">
      <rect class="cls-1" width="1080" height="1080"/>
    </clipPath>
  </defs>
  <g id="Layer_1-2" data-name="Layer 1">
    <g class="cls-3">
      <path class="cls-2" d="M736.42,156.28c105.05-4.46,198.08,74.69,210.55,178.8,57.62,35.57,99.71,94.91,103.94,164.04,12.06,197.28-225.89,295.56-356.69,150.73-20.67,18.43-40.26,37.76-66.29,48.86-17.16,120.84,9.79,241.33,65.16,348.62,2.38,16.05-9.44,29.76-25.72,29.68l-263.26-.99c-11.55-3.87-18.36-15.26-17.54-27.22.72-10.51,10.38-17.32,15.28-25.65,15.92-27.07,21.04-56.46,25.35-87.28,11.31-80.9,9.48-165.4,9.67-247.01-19.82-8.47-34.33-24.43-49.47-39-3.12-.55-21.02,19.75-25.04,23.1-87.6,73.26-221.87,56.5-291.02-33.15-75.99-98.52-47.21-241.31,59.98-302.74,1.94-11.93-1.46-23.17-.93-35.9,4.96-117.75,113.64-210.62,231.18-194.23C419.03,8.02,542.76-26.95,643.06,31.19c45.84,26.57,81.53,73.17,93.36,125.09Z"/>
    </g>
  </g>
</svg>