<svg width="35" height="35" viewBox="0 0 35 35" fill="none" xmlns="http://www.w3.org/2000/svg">
<g clip-path="url(#clip0_736_392)">
<path d="M32.4161 0H2.58454C1.15552 0 0 1.12817 0 2.523V32.4777C0 33.8725 1.15552 35.0075 2.58454 35.0075H32.4161C33.8452 35.0075 35.0075 33.8725 35.0075 32.4845V2.523C35.0075 1.12817 33.8452 0 32.4161 0ZM10.386 29.8316H5.18959V13.121H10.386V29.8316ZM7.78781 10.8441C6.11948 10.8441 4.77251 9.49716 4.77251 7.83567C4.77251 6.17418 6.11948 4.82721 7.78781 4.82721C9.4493 4.82721 10.7963 6.17418 10.7963 7.83567C10.7963 9.49032 9.4493 10.8441 7.78781 10.8441ZM29.8316 29.8316H24.642V21.7088C24.642 19.7738 24.6078 17.2781 21.9412 17.2781C19.2405 17.2781 18.8302 19.3909 18.8302 21.572V29.8316H13.6475V13.121H18.6251V15.4047H18.6935C19.384 14.0919 21.0797 12.7039 23.6027 12.7039C28.8607 12.7039 29.8316 16.1636 29.8316 20.6626V29.8316Z" fill="#FAF5EE"/>
</g>
<defs>
<clipPath id="clip0_736_392">
<rect width="35.0075" height="35.0075" fill="white"/>
</clipPath>
</defs>
</svg>
