<svg width="369" height="642" viewBox="0 0 369 642" fill="#FAF5EE" xmlns="http://www.w3.org/2000/svg">
<path d="M57.2025 91.6347C40.7618 101.034 26.4191 107.971 15 113C42.172 48.7655 104.358 2.87876 177 0C131.014 45.0196 87.9172 74.1194 57.2025 91.6347Z"/>
<path d="M239 8.54717C185.375 72.9569 119.845 115.759 72.8111 140.882C43.4796 156.528 17.7369 167.314 0 174C0.759168 160.594 2.96766 147.602 6.45293 135.092C19.5658 130.095 39.8218 121.376 64.8399 107.281C99.4856 87.7412 149.28 54.2096 201.525 1C214.431 2.20618 226.957 4.79079 238.965 8.54717H239Z"/>
<path d="M286.966 31.4058C222.402 109.712 145.829 159.412 91.4452 187.778C52.6932 208.009 19.7384 220.417 0 227V193.086C18.082 186.571 47.0339 174.888 81.0929 156.758C130.853 130.22 200.696 84.4833 257.013 15C267.538 19.5495 277.579 25.0296 287 31.3713L286.966 31.4058Z"/>
<path d="M268 78.8343C279.229 67.302 290.252 55.0469 300.999 42C305.649 45.8211 310.127 49.8832 314.364 54.1175C338.682 78.4212 356.25 109.403 364 144C313.709 118.113 282.915 92.8106 268 78.8343Z" />
<path d="M369 184.867V213C293.247 177.125 242.4 131.331 228 117.506C237.301 109.488 246.602 100.986 255.835 92C272.37 107.795 307.784 137.103 368.07 166.48C368.69 172.528 369 178.68 369 184.867Z"/>
<path d="M213.944 129C172.591 162.611 132.032 187.215 99.2745 204.297C55.4708 227.142 19.3647 240.151 0 246.328V641.965H118.398L52.3297 575.917V495.961L183.05 626.644L318.362 491.371V570.361L246.702 642H369V232.559C283.257 193.876 227.717 142.562 213.91 129.035L213.944 129ZM103.934 234.837C129.72 209.197 164.445 202.02 182.809 218.204C201.172 202.02 235.898 209.197 261.683 234.837C287.33 260.615 294.51 295.33 278.321 313.688C294.51 332.047 287.33 366.762 261.683 392.54C235.898 418.179 201.172 425.357 182.809 409.173C164.445 425.357 129.72 418.179 103.934 392.54C78.2529 366.762 71.1076 332.047 87.2966 313.688C71.1076 295.33 78.2874 260.615 103.934 234.837ZM210.699 573.57V483.676L192.888 465.87V589.099H175.007V465.732L157.058 483.676V573.57L84.19 500.723L96.8237 488.093L139.178 530.435V476.257L183.879 431.569L196.512 444.199L228.545 476.257V530.435L277.906 481.088L290.54 493.718L210.699 573.57ZM300.481 534.438L192.957 641.931H221.435L300.481 562.907V534.438ZM70.2101 568.497L143.699 641.931H173.143L70.2446 539.062V568.497H70.2101Z"/>
<path d="M235.367 295.964L226.415 297.422L234.127 291.834C239.429 286.488 239.429 277.741 234.127 272.395L226.553 264.759C221.251 259.413 212.575 259.413 207.273 264.759L202.006 272.187L203.521 262.746C203.521 255.179 197.392 249 189.887 249H179.215C171.709 249 165.581 255.179 165.581 262.746L167.027 271.736L161.484 263.961C156.182 258.615 147.506 258.615 142.204 263.961L134.665 271.562C129.363 276.908 129.363 285.655 134.665 291.001L141.998 296.346L132.633 294.784C125.128 294.784 119 300.963 119 308.53V319.29C119 326.857 125.128 333.036 132.633 333.036L141.585 331.578L133.873 337.166C128.571 342.512 128.571 351.259 133.873 356.605L141.447 364.241C146.749 369.587 155.425 369.587 160.727 364.241L165.994 356.813L164.479 366.254C164.479 373.821 170.608 380 178.113 380H188.785C196.291 380 202.419 373.821 202.419 366.254L200.973 357.264L206.516 365.039C211.818 370.385 220.494 370.385 225.796 365.039L233.335 357.438C238.637 352.092 238.637 343.345 233.335 337.999L226.002 332.654L235.367 334.216C242.872 334.216 249 328.037 249 320.47V309.71C249 302.143 242.872 295.964 235.367 295.964ZM183.966 337.757C170.676 337.757 159.866 326.857 159.866 313.459C159.866 300.06 170.676 289.161 183.966 289.161C197.255 289.161 208.065 300.06 208.065 313.459C208.065 326.857 197.255 337.757 183.966 337.757Z" />
</svg>
