<svg viewBox="0 0 154 97" fill="none" xmlns="http://www.w3.org/2000/svg">
<path d="M12.5073 46.2063V51.8626H18.1636L12.5073 46.2063ZM12.8652 34.0798C12.7469 34.1289 12.6285 34.1837 12.5102 34.2357V43.1299L19.7047 50.3244V32.5041C17.2892 32.6282 14.9863 33.1794 12.8681 34.0798H12.8652ZM21.8807 32.5041V50.3244L34.4458 37.7622C31.0953 34.7032 26.7145 32.7552 21.8807 32.5041ZM35.9666 39.3148L23.4159 51.8626H41.0285C40.8294 47.0576 38.9506 42.6855 35.9666 39.3148ZM54.2198 17.6014V3.44043L12.5102 5.32203V31.875C13.5058 31.4796 14.5303 31.1535 15.5894 30.9025V15.388L27.3494 16.0633V31.2719C36.4342 34.0481 43.0832 42.446 43.2304 52.3936L54.2227 51.8972V29.6875L45.2765 30.2243V17.0878L54.2227 17.6014H54.2198ZM42.1886 30.409L30.4286 31.1131V16.2393L42.1886 16.9146V30.409Z" fill="#BC9D51"/>
<path d="M99.4357 1.40234V49.8592L64.0173 51.4551C64.7416 50.7855 65.3765 49.9746 65.9652 49.1839C66.6088 48.3239 68.2076 45.0975 68.6982 44.6992C69.3446 44.174 71.8293 46.1421 72.4527 46.6068L74.3631 43.1957L64.0028 36.7775L62.0231 39.9173L65.3101 42.0442C65.4342 42.4309 61.6306 48.2864 60.7995 48.6817C60.1877 48.9703 59.5384 48.3585 58.7794 48.4047C58.3667 48.4278 58.0117 48.5461 57.7231 48.7279V3.28105L89.5198 1.84677C86.859 4.83366 84.582 8.14954 82.7322 11.0123C77.5636 19.0091 73.1713 27.5629 68.069 35.6058L67.8468 36.6274L72.949 39.7874C76.9142 30.2352 81.4191 21.5862 88.9339 14.3138C90.2932 12.9978 95.0549 9.56073 95.6667 8.60839C96.1486 7.85517 96.2294 6.25062 96.6364 5.22614C97.1789 3.86977 97.8888 2.6173 98.7026 1.43409L99.4328 1.40234H99.4357Z" fill="#BC9D51"/>
<path d="M138.176 18.5706C140.155 19.0468 142.426 19.4451 144.649 19.5114V17.9444C142.66 17.8809 140.629 17.5346 138.822 17.1162C138.989 16.5534 139.079 15.9589 139.079 15.3413C139.079 11.9158 136.3 9.13958 132.877 9.13958C132.262 9.13958 131.665 9.22904 131.102 9.39643C130.421 6.47591 129.942 2.95514 130.522 0L128.912 0.072147C128.566 2.14709 128.629 4.60298 129.108 7.43114C129.264 8.33731 129.446 9.2175 129.645 10.0429C128.802 10.5594 128.092 11.2694 127.579 12.1092C125.406 11.5868 122.88 11.1597 120.453 11.1597C116.858 11.1597 114.102 12.0889 112.269 13.9273L112.182 14.0138C110.341 10.4815 111.455 5.17727 115.031 0.695498L102.942 1.24092V49.7006L144.652 47.819V35.0894C142.426 36.2871 140.138 36.9104 138.057 36.9104C136.649 36.9104 135.336 36.6247 134.205 36.036C134.233 36.0071 134.262 35.9783 134.291 35.9523C136.845 33.3983 137.636 29.1243 136.643 23.2515C136.49 22.3454 136.306 21.4652 136.106 20.6369C136.949 20.1203 137.659 19.4133 138.173 18.5706H138.176ZM133.18 34.8441C133.082 34.9451 132.981 35.0404 132.877 35.1327C132.675 35.3087 132.467 35.4732 132.248 35.6204C132.026 35.7763 131.792 35.9148 131.553 36.0418C130.424 36.6305 129.108 36.9162 127.7 36.9162C124.139 36.9162 119.96 35.0836 116.543 31.6812C111.793 26.9108 110.102 20.66 112.182 16.6717C112.309 16.4293 112.448 16.1956 112.604 15.9705C112.751 15.754 112.913 15.5462 113.092 15.3442C113.184 15.2403 113.279 15.1364 113.377 15.0383C115.097 13.3183 117.703 12.7325 120.456 12.7325C122.647 12.7325 124.932 13.1048 126.935 13.5694C126.768 14.1322 126.678 14.7295 126.678 15.3442C126.678 18.7698 129.457 21.546 132.883 21.546C133.498 21.546 134.095 21.4565 134.658 21.2891C135.708 25.8055 136.28 31.7562 133.189 34.847L133.18 34.8441Z" fill="#BC9D51"/>
<path d="M41.0315 51.8623H23.4189L35.9696 39.3145C38.9565 42.6852 40.8323 47.0573 41.0315 51.8623Z" fill="#BC9D51"/>
<path d="M34.4431 37.762L21.8779 50.3242V32.5039C26.7118 32.755 31.0897 34.7029 34.4431 37.762Z" fill="#BC9D51"/>
<path d="M15.3208 70.1268C15.3208 73.079 11.9847 73.5206 9.71642 73.5206L6.08887 73.5148C6.72376 72.7847 6.75262 71.6909 6.75551 71.538V63.2786C6.75551 63.1256 6.72376 62.029 6.08887 61.3018H11.1565C11.1565 61.3018 14.4146 61.3191 14.4146 63.9827C14.4146 66.0779 13.3267 66.6695 12.7668 67.01C12.7668 67.01 15.3208 67.567 15.3208 70.1297V70.1268ZM9.09307 66.7936C9.09307 66.7936 12.1983 67.2005 12.1983 64.104C12.1983 62.2772 9.34703 62.4763 9.09307 62.4763V66.7936ZM12.9399 70.196C12.9284 67.5381 10.8246 67.5295 9.09595 67.5266V72.219H9.11327C9.36434 72.219 9.74528 72.2479 10.1724 72.2479C11.3758 72.2479 12.9371 72.0113 12.9371 70.2105V70.196H12.9399Z" fill="#BC9D51"/>
<path d="M25.9385 73.5148C25.9385 73.5148 25.1853 73.6476 24.4003 73.6476C23.8664 73.6476 23.3181 73.587 22.9862 73.3792C22.2705 72.9347 19.3702 68.3202 18.8075 67.4083V71.5207C18.8075 71.5207 18.8075 72.6635 19.4568 73.5177H15.8062C16.4382 72.7847 16.4728 71.6909 16.4728 71.538V63.2815C16.4728 63.1285 16.4382 62.0377 15.8062 61.3018H20.8738C20.8738 61.3018 24.1319 61.3018 24.1319 63.8789C24.1319 66.4559 22.461 67.1543 21.4019 67.3765C22.0512 68.4847 24.4724 72.5278 25.9385 73.5177V73.5148ZM21.9127 64.2684C21.9127 62.4936 19.5578 62.4936 19.5578 62.4936H18.8075V66.7734H19.5578C19.5578 66.7734 21.9127 66.7388 21.9127 64.2656V64.2684Z" fill="#BC9D51"/>
<path d="M35.7617 67.4259C35.7617 72.101 33.3895 73.7546 30.4402 73.7546C27.4908 73.7546 25.1157 72.101 25.1157 67.4259C25.1157 62.7507 27.4879 61.0625 30.4402 61.0625C33.3924 61.0625 35.7617 62.82 35.7617 67.4259ZM33.5136 67.1459C32.8152 64.5342 32.0072 62.8344 28.0824 62.8344C27.309 62.8315 26.9338 63.5011 26.9569 64.8459C26.9569 65.7145 27.1301 66.7939 27.4331 67.9367C28.0651 70.2915 29.1733 72.3896 32.3131 72.3896C33.378 72.3896 33.7272 71.5671 33.7272 70.456C33.7272 69.5383 33.7849 68.1589 33.5136 67.1488V67.1459Z" fill="#BC9D51"/>
<path d="M35.1992 61.2959H45.6605L44.7399 63.5642L43.6664 62.7273C43.4528 62.5743 43.2162 62.4906 42.9507 62.4733H41.551V71.5148C41.551 71.5148 41.551 72.5047 42.2004 73.5089H38.5497C39.1817 72.7788 39.2135 71.6851 39.2135 71.5321V62.4762H37.86C37.5945 62.4935 37.355 62.5772 37.1443 62.7302L36.0708 63.5671L35.2021 61.2988L35.1992 61.2959Z" fill="#BC9D51"/>
<path d="M54.7133 71.5177C54.7133 71.5177 54.7133 72.5076 55.3626 73.5148H51.8909C52.4999 72.8164 52.5518 71.8207 52.5547 71.5754V67.9537H48.5577V71.5206C48.5577 71.5206 48.5577 72.5105 49.2071 73.5176H45.7354C46.3702 72.7846 46.3991 71.6793 46.3991 71.535V63.2814C46.3991 63.1371 46.3702 62.0347 45.7354 61.2988H49.2071C48.5577 62.306 48.5577 63.2959 48.5577 63.2959V66.7907H52.5547V63.2381C52.5518 62.99 52.497 61.9828 51.8909 61.2988H55.3626C54.7133 62.306 54.7133 63.2959 54.7133 63.2959V71.5177Z" fill="#BC9D51"/>
<path d="M63.3042 71.1888L64.2132 73.5148H55.9048C56.5397 72.7847 56.5685 71.6909 56.5714 71.538V63.2786C56.5714 63.1256 56.5397 62.029 55.9048 61.3018H64.2132L63.3273 63.5701L62.2537 62.7332C62.0402 62.5802 61.8035 62.4936 61.538 62.4763H58.9119V66.7763H60.7213C60.8743 66.7763 61.9709 66.7445 62.701 66.1125V68.603C61.6939 67.9537 60.704 67.9537 60.704 67.9537H58.9119V72.3374H61.538C61.8035 72.3201 62.0431 72.2335 62.2537 72.0805L63.3071 71.1859L63.3042 71.1888Z" fill="#BC9D51"/>
<path d="M74.7007 73.5148C74.7007 73.5148 73.9475 73.6476 73.1625 73.6476C72.6286 73.6476 72.0803 73.587 71.7484 73.3792C71.0327 72.9347 68.1324 68.3202 67.5697 67.4083V71.5207C67.5697 71.5207 67.5697 72.6635 68.219 73.5177H64.5684C65.2004 72.7847 65.235 71.6909 65.235 71.538V63.2815C65.235 63.1285 65.2004 62.0377 64.5684 61.3018H69.636C69.636 61.3018 72.8941 61.3018 72.8941 63.8789C72.8941 66.4559 71.2232 67.1543 70.1641 67.3765C70.8134 68.4847 73.2347 72.5278 74.7007 73.5177V73.5148ZM70.6749 64.2684C70.6749 62.4936 68.32 62.4936 68.32 62.4936H67.5697V66.7734H68.32C68.32 66.7734 70.6749 66.7388 70.6749 64.2656V64.2684Z" fill="#BC9D51"/>
<path d="M83.546 70.4445C83.546 71.9971 81.7221 73.7546 79.0094 73.7546C76.946 73.7546 75.6214 73.2957 74.5796 72.1356L76.5939 70.003C77.3443 71.215 78.5823 72.3752 80.5793 72.3752C81.295 72.3752 81.5865 72.1703 81.5865 71.8124C81.5865 71.0274 79.8203 69.5499 78.0022 68.1098C76.2621 66.7275 75.0182 65.7549 75.0182 64.237C75.0182 62.719 76.4352 61.0625 79.3009 61.0625C81.2113 61.0625 82.2705 61.6079 82.7986 62.087L81.8087 64.7651C80.6313 63.8272 79.2836 62.5978 77.4914 62.5978C76.9806 62.5978 76.6372 62.7046 76.6372 63.1259C76.6372 63.7233 78.2562 65.1922 79.829 66.3494C81.5692 67.6279 83.5489 68.7909 83.5489 70.4445H83.546Z" fill="#BC9D51"/>
<path d="M89.4046 71.5207C89.4046 71.5207 89.4046 72.5105 90.0539 73.5177H86.5908C87.2257 72.7876 87.2546 71.6938 87.2575 71.5409V63.2988C87.2575 63.1285 87.2315 62.0405 86.5908 61.3018H90.0539C89.4046 62.3089 89.4046 63.2988 89.4046 63.2988V71.5235V71.5207Z" fill="#BC9D51"/>
<path d="M101.012 61.2988C100.584 62.0318 100.397 62.6292 100.397 63.6537V73.7543C99.3435 73.7803 98.5268 73.356 97.9525 72.473L92.7204 65.189V71.056C92.7204 72.1988 92.9253 72.7789 93.3524 73.5119H90.6396C91.0668 72.7789 91.2543 72.1988 91.2543 71.056V63.7547C91.2543 62.6119 91.0668 62.0318 90.6396 61.2988H93.0436L98.9135 69.7256V63.7547C98.9135 62.6119 98.7259 62.0318 98.2988 61.2988H101.012Z" fill="#BC9D51"/>
<path d="M111.193 73.5154C111.62 73.0507 111.768 72.5515 111.638 72.0147C111.346 70.9065 110.887 69.9513 110.887 69.9513H107.084L106.778 71.0595C106.599 71.6915 106.46 72.1648 106.46 72.5775C106.46 72.9093 106.55 73.2037 106.778 73.5183H103.69C104.406 72.7853 104.815 72.2052 105.243 71.0624L107.851 63.4032C108.114 62.6991 108.221 62.2604 108.221 61.8564C108.221 61.6054 108.18 61.3658 108.108 61.083H110.053L113.176 69.6483C113.721 70.996 114.267 72.7362 115.308 73.5211H111.196L111.193 73.5154ZM110.46 68.7912L108.942 64.8L107.494 68.7768L110.46 68.7941V68.7912Z" fill="#BC9D51"/>
<path d="M125.463 73.5148C125.463 73.5148 124.71 73.6476 123.925 73.6476C123.391 73.6476 122.843 73.587 122.511 73.3792C121.795 72.9347 118.895 68.3202 118.332 67.4083V71.5207C118.332 71.5207 118.332 72.6635 118.982 73.5177H115.331C115.963 72.7847 115.998 71.6909 115.998 71.538V63.2815C115.998 63.1285 115.963 62.0377 115.331 61.3018H120.399C120.399 61.3018 123.657 61.3018 123.657 63.8789C123.657 66.4559 121.986 67.1543 120.927 67.3765C121.576 68.4847 123.997 72.5278 125.466 73.5177L125.463 73.5148ZM121.435 64.2684C121.435 62.4936 119.08 62.4936 119.08 62.4936H118.329V66.7734H119.08C119.08 66.7734 121.435 66.7388 121.435 64.2656V64.2684Z" fill="#BC9D51"/>
<path d="M137.85 63.3134V71.5208C137.85 71.5208 137.85 72.5078 138.496 73.5121H135.039C135.484 72.8859 135.706 72.2192 135.703 71.5208V65.2296L132.491 73.5987C131.487 73.6622 130.788 73.0965 130.422 72.3231L127.648 65.5615V71.062C127.654 72.15 127.824 72.7473 128.329 73.515H125.553C126.073 72.7156 126.148 72.2394 126.188 71.062V63.7722C126.188 62.6323 126.021 62.0696 125.568 61.3192H127.969L132.445 70.4646L135.72 61.3135L138.499 61.3192C137.853 62.3235 137.853 63.3134 137.853 63.3134H137.85Z" fill="#BC9D51"/>
<path d="M147.843 70.4445C147.843 71.9971 146.02 73.7546 143.307 73.7546C141.243 73.7546 139.919 73.2957 138.877 72.1356L140.891 70.003C141.642 71.215 142.88 72.3752 144.877 72.3752C145.592 72.3752 145.884 72.1703 145.884 71.8124C145.884 71.0274 144.118 69.5499 142.3 68.1098C140.559 66.7275 139.316 65.7549 139.316 64.237C139.316 62.719 140.733 61.0625 143.598 61.0625C145.509 61.0625 146.568 61.6079 147.096 62.087L146.106 64.7651C144.929 63.8272 143.581 62.5978 141.789 62.5978C141.278 62.5978 140.935 62.7046 140.935 63.1259C140.935 63.7233 142.554 65.1922 144.126 66.3494C145.867 67.6279 147.846 68.7909 147.846 70.4445H147.843Z" fill="#BC9D51"/>
</svg>
