<svg viewBox="0 0 133 53" fill="none" xmlns="http://www.w3.org/2000/svg">
<path d="M0 46.2062V51.8625H5.65632L0 46.2062ZM0.357849 34.0797C0.239527 34.1288 0.121205 34.1836 0.00288429 34.2356V43.1298L7.19738 50.3243V32.504C4.7819 32.6281 2.47897 33.1793 0.360735 34.0797H0.357849ZM9.37334 32.504V50.3243L21.9385 37.7621C18.588 34.7031 14.2072 32.7551 9.37334 32.504ZM23.4593 39.3147L10.9086 51.8625H28.5212C28.322 47.0575 26.4433 42.6854 23.4593 39.3147ZM41.7125 17.6014V3.44034L0.00288429 5.32194V31.8749C0.998513 31.4795 2.023 31.1534 3.08212 30.9024V15.3879L14.8421 16.0632V31.2718C23.9268 34.048 30.5759 42.4459 30.7231 52.3935L41.7154 51.8971V29.6874L32.7692 30.2242V17.0877L41.7154 17.6014H41.7125ZM29.6813 30.4089L17.9213 31.113V16.2392L29.6813 16.9145V30.4089Z" fill="#BC9D51"/>
<path d="M86.9283 1.40247V49.8593L51.5099 51.4552C52.2343 50.7856 52.8692 49.9747 53.4579 49.184C54.1014 48.324 55.7002 45.0976 56.1908 44.6993C56.8373 44.1741 59.322 46.1423 59.9454 46.6069L61.8558 43.1958L51.4955 36.7776L49.5158 39.9174L52.8028 42.0443C52.9269 42.431 49.1233 48.2865 48.2922 48.6818C47.6804 48.9704 47.031 48.3586 46.2721 48.4048C45.8594 48.4279 45.5044 48.5462 45.2158 48.728V3.28118L77.0125 1.84689C74.3517 4.83378 72.0747 8.14966 70.2249 11.0125C65.0563 19.0092 60.6639 27.563 55.5617 35.6059L55.3395 36.6275L60.4417 39.7876C64.4069 30.2353 68.9118 21.5863 76.4266 14.3139C77.7859 12.9979 82.5476 9.56085 83.1594 8.60851C83.6413 7.85529 83.7221 6.25074 84.129 5.22626C84.6716 3.86989 85.3815 2.61743 86.1953 1.43422L86.9254 1.40247H86.9283Z" fill="#BC9D51"/>
<path d="M125.669 18.5706C127.648 19.0468 129.92 19.4451 132.142 19.5114V17.9444C130.153 17.8809 128.122 17.5346 126.315 17.1162C126.483 16.5534 126.572 15.9589 126.572 15.3413C126.572 11.9158 123.793 9.13958 120.37 9.13958C119.756 9.13958 119.158 9.22904 118.595 9.39643C117.914 6.47591 117.435 2.95514 118.015 0L116.405 0.072147C116.059 2.14709 116.122 4.60298 116.601 7.43114C116.757 8.33731 116.939 9.2175 117.138 10.0429C116.295 10.5594 115.586 11.2694 115.072 12.1092C112.899 11.5868 110.374 11.1597 107.947 11.1597C104.351 11.1597 101.595 12.0889 99.7622 13.9273L99.6756 14.0138C97.8345 10.4815 98.9484 5.17727 102.524 0.695498L90.4351 1.24092V49.7006L132.145 47.819V35.0894C129.92 36.2871 127.631 36.9104 125.55 36.9104C124.142 36.9104 122.829 36.6247 121.698 36.036C121.727 36.0071 121.756 35.9783 121.784 35.9523C124.338 33.3983 125.129 29.1243 124.136 23.2515C123.983 22.3454 123.799 21.4652 123.6 20.6369C124.442 20.1203 125.152 19.4133 125.666 18.5706H125.669ZM120.673 34.8441C120.575 34.9451 120.474 35.0404 120.37 35.1327C120.168 35.3087 119.96 35.4732 119.741 35.6204C119.519 35.7763 119.285 35.9148 119.046 36.0418C117.917 36.6305 116.601 36.9162 115.193 36.9162C111.632 36.9162 107.453 35.0836 104.036 31.6812C99.286 26.9108 97.5949 20.66 99.6756 16.6717C99.8026 16.4293 99.9411 16.1956 100.097 15.9705C100.244 15.754 100.406 15.5462 100.585 15.3442C100.677 15.2403 100.772 15.1364 100.87 15.0383C102.59 13.3183 105.196 12.7325 107.949 12.7325C110.14 12.7325 112.425 13.1048 114.428 13.5694C114.261 14.1322 114.171 14.7295 114.171 15.3442C114.171 18.7698 116.951 21.546 120.376 21.546C120.991 21.546 121.588 21.4565 122.151 21.2891C123.201 25.8055 123.773 31.7562 120.682 34.847L120.673 34.8441Z" fill="#BC9D51"/>
<path d="M28.5241 51.8619H10.9116L23.4623 39.3141C26.4492 42.6848 28.325 47.0569 28.5241 51.8619Z" fill="#BC9D51"/>
<path d="M21.9357 37.7619L9.37061 50.3242V32.5038C14.2045 32.7549 18.5823 34.7029 21.9357 37.7619Z" fill="#BC9D51"/>
</svg>
