<svg width="73" height="73" viewBox="0 0 73 73" fill="none" xmlns="http://www.w3.org/2000/svg">
<g clip-path="url(#clip0_1755_2446)">
<path d="M71.8358 27.2866C69.1189 31.9721 64.4751 35.3983 58.989 36.4803H36.4766V13.9679C37.5586 8.48445 40.9848 3.83803 45.6703 1.12109C58.4571 4.43773 68.5192 14.4998 71.8358 27.2866Z" fill="#BE1E2D"/>
<path d="M0.871094 45.9242C3.58803 41.2387 8.23185 37.8125 13.7179 36.7305H36.2303V59.243C35.1483 64.7264 31.7221 69.3728 27.0366 72.0897C14.2498 68.7731 4.18773 58.711 0.871094 45.9242Z" fill="#BE1E2D"/>
<path d="M73 36.4805C73 56.6515 56.6515 73 36.4805 73V49.4341C36.4805 42.2794 42.2794 36.4805 49.4341 36.4805H73Z" fill="#BE1E2D"/>
<path d="M0 36.5196C0 16.3485 16.3485 0 36.5196 0V23.5659C36.5196 30.7206 30.7206 36.5196 23.5659 36.5196H0Z" fill="#BE1E2D"/>
<path d="M54.5733 40.9864L50.9255 39.521H60.4322C60.4322 36.4416 57.9343 33.9437 54.8549 33.9437H50.1302L59.603 29.8996C58.3932 27.0679 55.1182 25.7512 52.284 26.961L48.6675 28.5046L55.3894 21.7827C53.2122 19.6055 49.6818 19.6055 47.502 21.7827L44.1618 25.1228L48 15.564C45.1422 14.4167 41.8934 15.8039 40.7461 18.6616L39.2808 22.3094V12.8027C36.2014 12.8027 33.7035 15.3006 33.7035 18.38V23.1047L29.6594 13.6319C26.8277 14.8417 25.511 18.1167 26.7208 20.9509L28.2644 24.5674L21.5425 17.8455C19.3653 20.0227 19.3653 23.5531 21.5425 25.7329L24.8826 29.073L15.3238 25.2349C14.1765 28.0927 15.5636 31.3415 18.4214 32.4888L22.0692 33.9541H12.5625C12.5625 37.0335 15.0604 39.5314 18.1398 39.5314H22.8644L13.3917 43.5755C14.6015 46.4072 17.8764 47.7239 20.7107 46.5141L24.3272 44.9705L17.6053 51.6924C19.7825 53.8696 23.3129 53.8696 25.4927 51.6924L28.8328 48.3523L24.9947 57.9111C27.8524 59.0584 31.1013 57.6713 32.2485 54.8135L33.7139 51.1657V60.6724C36.7933 60.6724 39.2912 58.1745 39.2912 55.0951V50.3705L43.3353 59.8432C46.167 58.6334 47.4837 55.3585 46.2739 52.5242L44.7303 48.9077L51.4522 55.6296C53.6294 53.4524 53.6294 49.922 51.4522 47.7422L48.1121 44.4021L57.6709 48.2402C58.8182 45.3825 57.431 42.1336 54.5733 40.9864Z" fill="#FBB040"/>
<path d="M36.3051 44.3524C40.5143 44.3524 43.9266 40.9401 43.9266 36.7309C43.9266 32.5216 40.5143 29.1094 36.3051 29.1094C32.0959 29.1094 28.6836 32.5216 28.6836 36.7309C28.6836 40.9401 32.0959 44.3524 36.3051 44.3524Z" fill="#00351A"/>
</g>
<defs>
<clipPath id="clip0_1755_2446">
<rect width="73" height="73" fill="white"/>
</clipPath>
</defs>
</svg>
