<svg width="369" height="641" viewBox="0 0 369 641" fill="none" xmlns="http://www.w3.org/2000/svg">
<path d="M367.999 165.938C367.274 158.527 366.066 151.288 364.479 144.153C356.714 109.511 339.078 78.4533 314.747 54.1176C310.468 49.8433 306.016 45.8104 301.357 41.9842C296.767 38.1925 291.97 34.6421 287.035 31.2986C277.613 24.9561 267.57 19.4754 257.044 14.9254C251.28 12.4436 245.379 10.2376 239.339 8.37618C227.329 4.61898 214.801 2.03374 201.894 0.827294C196.165 0.275777 190.367 0 184.5 0C182.084 0 179.668 0.0344992 177.253 0.137909C104.329 2.9989 41.9318 48.6369 14.6675 112.44C11.5614 119.714 8.90404 127.228 6.76431 134.949C3.27862 147.462 1.06987 160.491 0.310607 173.866C0.103536 177.313 0 180.76 0 184.241V641H369V184.241C369 178.071 368.689 171.935 368.068 165.903L367.999 165.938ZM261.599 391.921C235.819 417.532 201.1 424.702 182.705 408.536C164.345 424.702 129.626 417.532 103.846 391.921C78.1692 366.172 71.0253 331.496 87.2113 313.123C71.0253 294.786 78.2037 260.109 103.846 234.326C129.626 208.715 164.345 201.545 182.705 217.711C201.066 201.545 235.785 208.715 261.599 234.326C287.242 260.074 294.42 294.751 278.234 313.123C294.42 331.461 287.242 366.138 261.599 391.921Z" fill="#F78E1E"/>
<path d="M57.1936 90.8238C40.7563 100.14 26.4167 107.015 15 112C42.1662 48.334 104.339 2.81891 177 0C131.024 44.6212 87.9361 73.4635 57.228 90.8582L57.1936 90.8238Z" fill="#08422A"/>
<path d="M239 8.54572C185.375 72.9426 119.845 115.771 72.8112 140.888C43.4797 156.531 17.7369 167.316 0 174C0.759168 160.597 2.96765 147.607 6.45293 135.1C19.5658 130.104 39.8218 121.387 64.8399 107.295C99.4856 87.7584 149.28 54.2334 201.559 1C214.465 2.20593 226.991 4.79009 239 8.54572Z" fill="#08422A"/>
<path d="M287 31.4032C222.444 109.697 145.881 159.389 91.4688 187.784C52.7213 208.012 19.7705 220.418 0 227V193.091C18.1143 186.578 47.0283 174.896 81.0832 156.77C130.837 130.235 200.672 84.5065 256.982 15C267.506 19.5488 277.546 25.028 286.965 31.3687L287 31.4032Z" fill="#08422A"/>
<path d="M268 78.8219C279.229 67.2935 290.252 55.0081 300.999 42C305.649 45.8198 310.127 49.8806 314.364 54.1134C338.682 78.4089 356.25 109.381 364 144C313.709 118.121 282.915 92.8279 268 78.8219Z" fill="#08422A"/>
<path d="M368.966 184.107V212C293.196 176.432 242.362 130.995 228 117.288C237.299 109.339 246.598 100.909 255.828 92C272.36 107.66 307.765 136.717 368.07 165.844C368.69 171.84 369 177.939 369 184.073L368.966 184.107Z" fill="#08422A"/>
<path d="M70.197 538.311V567.685L143.673 641H173.111L70.197 538.345V538.311ZM192.955 641H221.428L300.46 562.106V533.696L192.955 641ZM213.939 129.034C172.593 162.61 132.008 187.163 99.2559 204.175C55.4259 226.971 19.3611 239.954 0 246.118V640.966H118.375L52.3199 575.054V495.265L183.016 625.676L318.337 490.651V569.476L246.69 640.966H369V232.344C283.273 193.74 227.743 142.533 213.939 129V129.034ZM103.915 234.651C129.695 209.065 164.414 201.902 182.774 218.052C201.135 201.902 235.854 209.065 261.668 234.651C287.311 260.375 294.489 295.018 278.303 313.372C294.489 331.693 287.311 366.335 261.668 392.094C235.888 417.68 201.169 424.843 182.774 408.692C164.414 424.843 129.695 417.68 103.915 392.094C78.2382 366.37 71.0943 331.727 87.2803 313.372C71.0943 295.052 78.2727 260.409 103.915 234.651ZM210.66 572.747V483.04L192.852 465.271V588.278H174.975V465.134L157.029 483.04V572.747L84.1742 500.052L96.8056 487.448L139.152 529.702V475.637L183.844 431.041L196.476 443.645L228.503 475.637V529.702L277.854 480.458L290.486 493.061L210.625 572.747H210.66Z" fill="#08422A"/>
<path d="M278.386 313C294.55 331.333 287.382 366.001 261.774 391.777C236.029 417.382 201.357 424.549 182.987 408.387C164.652 424.549 129.98 417.382 104.234 391.777C78.5925 366.035 71.4582 331.368 87.6223 313C71.4582 294.667 78.627 259.999 104.234 234.223C129.98 208.618 164.652 201.451 182.987 217.613C201.322 201.451 235.994 208.618 261.774 234.223C287.382 259.965 294.55 294.632 278.386 313Z" fill="#EE3724"/>
<path d="M235.401 295.939L226.45 297.396L234.162 291.811C239.463 286.468 239.463 277.726 234.162 272.383L226.587 264.751C221.286 259.408 212.61 259.408 207.308 264.751L202.006 272.175L203.521 262.738C203.521 255.175 197.392 249 189.887 249H179.215C171.709 249 165.581 255.175 165.581 262.738L167.027 271.758L161.484 263.987C156.182 258.645 147.506 258.645 142.204 263.987L134.665 271.585C129.363 276.928 129.363 285.67 134.665 291.013L141.998 296.356L132.633 294.794C125.128 294.794 119 300.97 119 308.533V319.322C119 326.885 125.128 333.061 132.633 333.061L141.585 331.604L133.873 337.189C128.571 342.532 128.571 351.274 133.873 356.617L141.413 364.249C146.714 369.592 155.39 369.592 160.692 364.249L165.994 356.825L164.479 366.262C164.479 373.825 170.608 380 178.113 380H188.785C196.291 380 202.419 373.825 202.419 366.262L200.973 357.242L206.516 365.013C211.818 370.355 220.494 370.355 225.796 365.013L233.335 357.415C238.637 352.072 238.637 343.33 233.335 337.987L226.002 332.644L235.367 334.206C242.872 334.206 249 328.03 249 320.467V309.712C249 302.149 242.872 295.939 235.367 295.939H235.401ZM184.034 337.709C170.711 337.709 159.935 326.816 159.935 313.39C159.935 299.964 170.745 289.07 184.034 289.07C197.324 289.07 208.168 299.964 208.168 313.39C208.168 326.816 197.358 337.709 184.034 337.709Z" fill="#F78E1E"/>
<path d="M208 313.5C208 327.026 197.242 338 183.983 338C170.724 338 160 327.026 160 313.5C160 299.974 170.758 289 183.983 289C197.208 289 208 299.974 208 313.5Z" fill="#08422A"/>
</svg>
