<?xml version="1.0" encoding="UTF-8"?>
<svg id="Layer_2" data-name="Layer 2" xmlns="http://www.w3.org/2000/svg" xmlns:xlink="http://www.w3.org/1999/xlink" viewBox="0 0 1080 1080">
  <defs>
    <style>
      .cls-1 {
        fill: none;
      }

      .cls-2 {
        fill: #fbb040;
      }

      .cls-3 {
        clip-path: url(#clippath);
      }
    </style>
    <clipPath id="clippath">
      <rect class="cls-1" y="0" width="1080" height="1080"/>
    </clipPath>
  </defs>
  <g id="Layer_1-2" data-name="Layer 1">
    <g class="cls-3">
      <g>
        <path class="cls-2" d="M712.29,819.63l-347.12.24c.35-7.57-1.49-14.87-3.68-22.01-21.8-71.26-78.83-92.94-123.49-145.61C33.36,410.86,185,38.14,498.5,5.27c317.01-33.23,541.78,305.16,386.56,584.71-33.28,59.93-66.73,83.5-113.84,128.35-28.72,27.34-51.49,61.75-58.92,101.31ZM545.55,145.28c-31.02,5.2-44.54,46.81-22.36,70.12,15.94,16.75,39.55,11.57,60.3,15.54,60.82,11.63,111.48,62.96,123.54,123.54,3.93,19.75-1,41.68,13.22,57.72,22.58,25.46,66.99,12.66,72.43-19.79,11.14-66.39-36.68-152.33-86.33-193.82-37.72-31.53-111.45-61.58-160.8-53.31Z"/>
        <path class="cls-2" d="M710.09,905.51v79.51c0,43.42-49.96,85.76-91.65,89.38-40.12,3.48-116.62,3.47-156.74,0-48.9-4.23-91.65-52.86-91.65-101.61v-67.27h340.04Z"/>
      </g>
    </g>
  </g>
</svg>