<svg width="29" height="29" viewBox="0 0 29 29" fill="none" xmlns="http://www.w3.org/2000/svg">
<path d="M23.9215 19.9869V25.2561C23.9215 26.8991 22.4028 28.5579 20.7788 28.8184C15.0909 28.9784 9.37869 28.8397 3.68193 28.8894C1.68428 28.7578 0.155582 27.2846 0 25.3129V3.63055C0.120701 1.71945 1.53534 0.22278 3.47043 0.00928251L20.4079 0C22.41 0.135415 23.9016 1.67249 24.0344 3.6311C24.0942 4.51239 23.9929 5.46576 24.0234 6.3547C23.349 6.72982 22.7245 7.10167 22.1492 7.61876C20.9964 8.65458 19.878 9.91154 18.7745 11.0069C17.4059 12.3654 15.2565 14.0543 14.5378 15.8381C14.2172 16.6343 13.4521 19.727 13.5135 20.5051C13.6237 21.9013 14.8534 23.0583 16.2603 23.1468C17.0028 23.1937 18.9506 22.7951 19.7252 22.592C20.6415 22.3523 21.7245 21.8325 22.4775 21.2657C22.9465 20.9129 23.3241 20.3937 23.7548 20.0682C23.8108 20.0262 23.8246 19.9629 23.9215 19.9869ZM5.74658 4.27432C4.40392 4.6833 4.45818 6.52451 5.95587 6.66266H17.8582C19.3913 6.51032 19.3016 4.39663 18.0249 4.26067L5.74658 4.27378V4.27432ZM13.7699 9.52222C13.5739 9.31363 13.2168 9.19788 12.9327 9.17385C10.7064 8.98547 8.20988 9.318 5.95532 9.17658C4.52241 9.31855 4.33195 11.2564 5.73828 11.5737H13.1481C14.1004 11.4459 14.3662 10.1556 13.7704 9.52222H13.7699Z" fill="#F39D3E"/>
<path d="M25.6212 8.87626C27.8525 8.81129 29.0938 11.2662 27.6775 12.9835C25.5398 14.8662 23.6091 17.3064 21.452 19.1296C19.977 20.3757 18.3216 20.4084 16.5155 20.872C16.227 20.8545 16.0188 20.6487 16 20.3636C16.4955 18.7086 16.4546 17.0596 17.6566 15.7147C19.5474 13.5989 21.9249 11.7009 23.8583 9.59975C24.3405 9.1733 24.9673 8.89592 25.6218 8.87681L25.6212 8.87626Z" fill="#F39D3E"/>
</svg>
