<svg width="21" height="20" viewBox="0 0 21 20" fill="none" xmlns="http://www.w3.org/2000/svg">
<path d="M9.98702 0.0547995C17.8172 -0.156679 22.794 8.02215 18.7505 14.4855C15.0035 20.4745 5.87013 20.6039 1.94878 14.7181C-2.20696 8.48076 2.29671 0.262546 9.98702 0.0547995ZM15.3333 12.0411C15.1214 11.8118 14.0715 10.9808 13.7918 10.8058C13.1486 10.4036 12.3733 10.9667 11.8946 11.383C11.7824 11.4809 11.3105 12.0066 11.2596 12.0203C11.1228 12.0564 10.9194 11.8876 10.8025 11.8113C10.1312 11.3735 9.33735 10.6358 8.7861 10.0577C8.58666 9.84874 7.75914 8.93026 7.71425 8.72002C7.7013 8.65948 7.70216 8.60972 7.74878 8.56204C8.35485 8.07398 9.52901 6.99419 8.97906 6.18228C8.78826 5.90031 7.93483 4.90968 7.6823 4.69115C6.90183 4.0165 5.68407 4.85329 5.29643 5.58351C4.35624 7.35537 5.59429 9.42661 6.75981 10.802C8.31816 12.6411 11.8631 15.739 14.4989 14.2989C15.2384 13.895 16.0167 12.7796 15.3338 12.0411H15.3333Z" fill="#F39D3E"/>
</svg>
