<?xml version="1.0" encoding="UTF-8"?>
<svg id="Layer_2" data-name="Layer 2" xmlns="http://www.w3.org/2000/svg" xmlns:xlink="http://www.w3.org/1999/xlink" viewBox="0 0 1080 1080">
  <defs>
    <style>
      .cls-1 {
        fill: none;
      }

      .cls-2 {
        fill: #fbb040;
      }

      .cls-3 {
        clip-path: url(#clippath);
      }
    </style>
    <clipPath id="clippath">
      <rect class="cls-1" width="1080" height="1080"/>
    </clipPath>
  </defs>
  <g id="Layer_1-2" data-name="Layer 1">
    <g class="cls-3">
      <g>
        <path class="cls-2" d="M388.77,569.8c2.59,10.44,6.24,20.37,10.33,30.3,3.18,7.71,12.64,18.81,10.43,26.27l-111.04,112.01c-16.88,27.32,13.21,58.39,41.31,43.4l115.73-113.38,54.46,23.35v293.54c-4.18,64.04-57.32,103.25-119.74,88.32C220.39,1032.96,39.52,857.11,4.54,684.22c-12.22-60.4,28.92-110.87,89.61-114.77l294.63.35Z"/>
        <path class="cls-2" d="M570.59,690.65c8.15-2.69,16.73-4.27,24.7-7.61,8.21-3.44,24.7-15.28,31.88-13.15l112.01,111.04c27.32,16.88,58.39-13.21,43.4-41.31l-113.41-115.74,23.38-54.45h293.54c61.84,3.96,102.25,55.45,89.2,116.46-25.18,117.68-124.25,244.26-222.15,311.25-39.89,27.29-141.07,80.18-188.11,80.85-49.19.7-93.3-41.6-94.78-90.62l.35-296.72Z"/>
        <path class="cls-2" d="M509.63,387.98c-19.84,4-36.76,14.24-54.65,22.86l-113.93-113.14c-28.11-15.2-58.25,11.96-43.38,41.29,4.73,9.33,13.15,13.55,19.55,20.04,31.35,31.83,64.01,62.41,93.84,95.72l-23.38,54.45H94.14c-59.33-3.01-101.32-54.43-90.03-113.12,15.03-78.14,80.22-182.89,134.85-240.19C200.24,91.61,308.11,22.35,395.62,4.15c59.93-12.46,112.28,30.69,114.37,91.27l-.36,292.55Z"/>
        <path class="cls-2" d="M691.45,508.83c1.03-12.78-22.98-48.67-20.81-56.56,1.23-4.48,56.85-57.7,65.28-66.15,10.59-10.62,39.8-34.86,45.77-45.91,15.72-29.13-12.09-57.35-41.27-43.35l-115.74,113.41-54.45-23.38V95.43c4.59-65.9,56.39-104.89,120.93-89.49,174.38,41.6,338.71,209.4,382.34,382.34,15.94,63.2-24.6,117.68-89.49,120.92l-292.55-.36Z"/>
        <circle class="cls-2" cx="540.08" cy="539.28" r="92.57"/>
      </g>
    </g>
  </g>
</svg>