<?xml version="1.0" encoding="UTF-8"?>
<svg id="Layer_2" data-name="Layer 2" xmlns="http://www.w3.org/2000/svg" xmlns:xlink="http://www.w3.org/1999/xlink" viewBox="0 0 1080 1080">
  <defs>
    <style>
      .cls-1 {
        fill: none;
      }

      .cls-2 {
        fill: #fbb040;
      }

      .cls-3 {
        clip-path: url(#clippath);
      }
    </style>
    <clipPath id="clippath">
      <rect class="cls-1" width="1080" height="1080"/>
    </clipPath>
  </defs>
  <g id="Layer_1-2" data-name="Layer 1">
    <g class="cls-3">
      <path class="cls-2" d="M270.96,954.78c-3.68,25.92-31.47,50.76-57.3,53.37-19.36,1.96-72.26,2.44-90.77-.44-24.61-3.83-49.23-29.98-51.93-54.86-1.3-11.99,2.26-72.48-.83-76.84-9.29-2.31-17.17-2.99-26.3-6.71-21.73-8.83-37.01-29.3-40.6-52.6,4.23-93.33-6.34-192.67-.3-285.31,3.46-53.1,35.35-93.03,81.27-116.78,20.56-64.39,38.01-129.79,58.11-194.31,23.43-75.23,40.69-140.52,133.43-150.05l532.08.12c60.77,8.56,94.83,43.56,114.14,99.45,27.6,79.87,46.51,164.56,73.64,244.8,44.87,22.88,77.44,63.11,81.25,114.86,6.82,92.63-5.09,193.73-.28,287.24-5.4,34.88-32.78,55.84-66.91,59.3-3.14,4.43.78,68.03-1.72,81.77-4.39,24.1-30.06,47.75-54.45,50.4-18.81,2.05-80,2.14-96.97-2.08-19.06-4.73-47.7-31.09-47.7-51.33v-77.67l-2.91-2.91H273.87l-2.91,2.91c-2.45,24.06,3.3,54.44,0,77.67ZM851.52,404.31l-60.11-199.1-501.74-.63-61.43,199.73h623.28ZM338.55,639.96c0-37.03-30.02-67.05-67.05-67.05s-67.05,30.02-67.05,67.05,30.02,67.05,67.05,67.05,67.05-30.02,67.05-67.05ZM875.26,639.98c0-37.02-30.01-67.03-67.03-67.03s-67.03,30.01-67.03,67.03,30.01,67.03,67.03,67.03,67.03-30.01,67.03-67.03Z"/>
    </g>
  </g>
</svg>