<?xml version="1.0" encoding="UTF-8"?>
<svg id="Layer_2" data-name="Layer 2" xmlns="http://www.w3.org/2000/svg" xmlns:xlink="http://www.w3.org/1999/xlink" viewBox="0 0 1080 1080">
  <defs>
    <style>
      .cls-1 {
        fill: none;
      }

      .cls-2 {
        fill: #fbb040;
      }

      .cls-3 {
        clip-path: url(#clippath);
      }
    </style>
    <clipPath id="clippath">
      <rect class="cls-1" y="0" width="1080" height="1080"/>
    </clipPath>
  </defs>
  <g id="Layer_1-2" data-name="Layer 1">
    <g class="cls-3">
      <g>
        <path class="cls-2" d="M1005.67,330.81c21.47,48.46,37.95,100,44.5,152.89,47.14,380.71-312.41,684.96-680.34,569.5C56.36,954.83-91.1,592.94,65.47,301.6,195.17,60.23,499.09-45,749.01,75.13c-13.96,18.71-32.43,30.49-43.78,51.47-13.76,25.42-11.49,42.66-16.55,69.01-.44,2.28-.82,3.51-2.85,4.87-218.8-101.51-479.35,29.34-532.84,262.54-67.31,293.41,207.02,546.58,494.46,455.57,215.1-68.11,328.41-318.39,231.9-524.59,1.35-1.94,2.53-2.49,4.83-2.89,34.14-5.85,56.29-3.86,85.5-27.28,10.34-8.29,21.07-24.17,31.13-31.1,1.64-1.13,1.92-2.71,4.86-1.91Z"/>
        <path class="cls-2" d="M513.33,236.09c50.96-2.5,104.67,8.39,150.09,31.51l-108.89,108.85c-17.66.72-33.14-1.44-51.26,1.25-131.48,19.49-195.04,172.38-114.8,279.61,93.02,124.31,290.97,72.21,313.64-80.77,2.69-18.12.53-33.6,1.25-51.26l108.85-108.89c14.03,26.85,23.3,56.81,27.87,86.82,44.7,293.2-305.3,482-524.74,281.67-207.15-189.11-80.99-535.1,197.97-548.79Z"/>
        <path class="cls-2" d="M929.33,2.64c19.02-3.49,37.92,7.68,42.44,26.64.12,28.75-6,58.17-10.69,86.7l3.91,2.12,76.68-11.07c29.68.56,46.06,31.61,29.05,56.42l-149.9,149.57c-40.88,12.01-84.63,12.08-126.22,21.56l-169.09,169.35c-2.66,5.8,4.98,20.92,6.35,28.63,18.87,106.1-115.91,168.98-184.2,86.97-63.69-76.47,4.08-190.25,101.18-171.19,8.49,1.67,21.02,9.29,28.18,5.09l169.03-169.35c8.71-41.5,8.81-85.96,21.54-126.25L913.29,11.86c4.48-3.99,10-8.11,16.04-9.22Z"/>
      </g>
    </g>
  </g>
</svg>