<svg width="74" height="63" viewBox="0 0 74 63" fill="none" xmlns="http://www.w3.org/2000/svg">
<g clip-path="url(#clip0_1755_2407)">
<path d="M37 38.1433V61.1287C37 61.7587 36.9621 62.3887 36.8767 62.9996C16.4982 62.9328 0 46.2951 0 25.7724C0 25.1328 0.0189744 24.4933 0.0474359 23.8633H22.8072C30.6151 23.8633 37 30.2874 37 38.1433Z" fill="#BE1E2D"/>
<path d="M37 38.1433V61.1287C37 61.7587 37.0379 62.3887 37.1233 62.9996C57.5018 62.9328 74 46.2951 74 25.7724C74 25.1328 73.981 24.4933 73.9526 23.8633H51.1928C43.3849 23.8633 37 30.2874 37 38.1433Z" fill="#BE1E2D"/>
<path d="M36.9998 9.70773V25.3336C36.9998 25.7632 36.9714 26.1927 36.9145 26.6032C23.0537 26.5555 11.8398 15.2441 11.8398 1.28864C11.8398 0.859091 11.8493 0.429545 11.8778 0H27.3514C32.6547 0 36.9998 4.37182 36.9998 9.70773Z" fill="#BE1E2D"/>
<path d="M37 9.70751V25.3334C37 25.763 37.0285 26.1925 37.0854 26.603C50.9462 26.5552 62.16 15.2439 62.16 1.28842C62.16 0.849325 62.1505 0.41978 62.1315 -0.00976562H46.6579C41.3451 -0.00976562 37.0095 4.36205 37.0095 9.69796L37 9.70751Z" fill="#BE1E2D"/>
</g>
<defs>
<clipPath id="clip0_1755_2407">
<rect width="74" height="63" fill="white"/>
</clipPath>
</defs>
</svg>
