<?xml version="1.0" encoding="UTF-8"?>
<svg id="Layer_2" data-name="Layer 2" xmlns="http://www.w3.org/2000/svg" xmlns:xlink="http://www.w3.org/1999/xlink" viewBox="0 0 1080 1080">
  <defs>
    <style>
      .cls-1 {
        fill: none;
      }

      .cls-2 {
        fill: #fbb040;
      }

      .cls-3 {
        clip-path: url(#clippath);
      }
    </style>
    <clipPath id="clippath">
      <rect class="cls-1" width="1080" height="1080"/>
    </clipPath>
  </defs>
  <g id="Layer_1-2" data-name="Layer 1">
    <g class="cls-3">
      <g>
        <path class="cls-2" d="M507.98,1076.75h-219.27v-136.8c0-6.76-9.17-28.91-13.59-34.92L31.58,655.7c-16.37-21.37-26.25-47.71-28.19-74.65-7.62-106.06,5.91-221.08,0-328.08,8.11-76.84,121.46-78.27,128.21,0,6.4,74.29-6.57,158.59-.04,232.89,1.36,15.51,7.91,32.69,16.6,45.5l179.37,181.68c2.26,1.81,3.18.21,4.89-.97,6.82-4.69,12.66-14.77,18.28-20.58,6.96-7.18,18.04-11.87,21.23-22.92l-160.9-161.28c-49.83-55.01,17.56-135.51,81.42-95l215.52,215.26v449.21Z"/>
        <path class="cls-2" d="M791.29,1076.75h-219.27v-449.21l215.52-215.26c63.87-40.5,131.26,40,81.42,95l-160.97,161.27,39.58,43.51,4.89.97,179.37-181.68c8.69-12.81,15.23-29.98,16.6-45.5,6.53-74.3-6.44-158.6-.04-232.89,6.74-78.27,120.1-76.84,128.21,0-5.91,107,7.62,222.02,0,328.08-3.47,48.29-24.44,70.71-55.35,103.77-70.16,75.05-145.98,145.32-216.38,220.22-4.41,6.02-13.59,28.16-13.59,34.92v136.8Z"/>
        <path class="cls-2" d="M537.13,59.95c2.69.66,3.2-.54,4.89-1.86,5.42-4.23,12.58-15.53,19.28-21.47,85.25-75.5,210.45-13.52,225.89,92.45,13.4,91.99-52.08,157.09-114.23,213.25-43.07,38.91-89.58,74.36-132.92,112.99-46.84-40.79-97.11-78.55-142.67-120.75-63.53-58.84-125.44-126.24-102.24-220.66C322.72,1.53,468.52-39.46,537.13,59.95Z"/>
      </g>
    </g>
  </g>
</svg>