<svg width="28" height="28" viewBox="0 0 28 28" fill="none" xmlns="http://www.w3.org/2000/svg">
<path d="M23.2566 3.98133C20.797 1.52165 17.3979 0 13.6444 0C9.89088 0 6.49179 1.52165 4.03211 3.98133C1.57243 6.4417 0.0507812 9.83941 0.0507812 13.5936C0.0507812 17.3478 1.57243 20.7455 4.03211 23.2052C6.49179 25.6649 9.89088 27.1865 13.6444 27.1865C21.1521 27.1865 27.238 21.1006 27.238 13.5936C27.238 9.83941 25.7163 6.4417 23.2566 3.98133ZM21.5982 17.2575C21.5982 18.4151 20.6601 19.3532 19.5025 19.3532H7.7863C6.62864 19.3532 5.69061 18.4151 5.69061 17.2575V9.92904C5.69061 8.77207 6.62864 7.83335 7.7863 7.83335H19.5025C20.6601 7.83335 21.5982 8.77207 21.5982 9.92904V17.2575ZM15.5266 13.088L12.2685 11.4596C11.8928 11.2721 11.4502 11.5451 11.4502 11.9652V15.222C11.4502 15.6421 11.8928 15.9151 12.2685 15.7269L15.5266 14.0992C15.9426 13.8905 15.9426 13.296 15.5266 13.088Z" fill="white"/>
</svg>
