<svg width="35" height="35" viewBox="0 0 35 35" fill="none" xmlns="http://www.w3.org/2000/svg">
<g clip-path="url(#clip0_736_391)">
<path d="M34.6588 10.5021C34.6588 10.5021 34.3169 8.08851 33.264 7.02872C31.9307 5.63388 30.4401 5.62705 29.7564 5.545C24.8608 5.18945 17.5106 5.18945 17.5106 5.18945H17.4969C17.4969 5.18945 10.1467 5.18945 5.25113 5.545C4.56739 5.62705 3.07683 5.63388 1.74354 7.02872C0.690578 8.08851 0.355545 10.5021 0.355545 10.5021C0.355545 10.5021 0 13.3396 0 16.1703V18.8232C0 21.6539 0.348708 24.4915 0.348708 24.4915C0.348708 24.4915 0.690578 26.9051 1.7367 27.9649C3.07 29.3597 4.82037 29.3118 5.59984 29.4622C8.40317 29.7289 17.5038 29.811 17.5038 29.811C17.5038 29.811 24.8608 29.7973 29.7564 29.4486C30.4401 29.3665 31.9307 29.3597 33.264 27.9649C34.3169 26.9051 34.6588 24.4915 34.6588 24.4915C34.6588 24.4915 35.0075 21.6608 35.0075 18.8232V16.1703C35.0075 13.3396 34.6588 10.5021 34.6588 10.5021ZM13.8868 22.0437V12.2046L23.3429 17.1412L13.8868 22.0437Z" fill="#FAF5EE"/>
</g>
<defs>
<clipPath id="clip0_736_391">
<rect width="35.0075" height="35.0075" fill="white"/>
</clipPath>
</defs>
</svg>
